<svg width="264" height="75" viewBox="0 0 264 75" fill="none" xmlns="http://www.w3.org/2000/svg">
<rect width="264" height="75" rx="12" fill="white" fill-opacity="0.15"/>
<rect x="0.5" y="0.5" width="263" height="74" rx="11.5" stroke="white" stroke-opacity="0.15"/>
<path d="M58.5948 31.3648C58.2813 31.5809 52.7468 34.3507 52.7468 40.5098C52.7468 47.6337 59.7892 50.1539 60 50.2163C59.9676 50.3699 58.8812 53.6679 56.2869 57.0282C53.9737 59.9853 51.5578 62.9376 47.8826 62.9376C44.2073 62.9376 43.2615 61.0414 39.0188 61.0414C34.8842 61.0414 33.4141 63 30.0523 63C26.6906 63 24.3449 60.2637 21.648 56.9034C18.524 52.9574 16 46.8272 16 41.009C16 31.6769 22.8316 26.7276 29.5551 26.7276C33.1276 26.7276 36.1056 28.811 38.3486 28.811C40.4835 28.811 43.8128 26.6028 47.8772 26.6028C49.4175 26.6028 54.952 26.7276 58.5948 31.3648ZM45.9477 22.652C47.6285 20.8806 48.8176 18.4227 48.8176 15.9649C48.8176 15.6241 48.7852 15.2784 48.7149 15C45.9801 15.0912 42.7264 16.6178 40.7645 18.6388C39.2242 20.1941 37.7865 22.652 37.7865 25.1434C37.7865 25.5179 37.8568 25.8923 37.8892 26.0123C38.0622 26.0411 38.3432 26.0747 38.6242 26.0747C41.078 26.0747 44.1641 24.6154 45.9477 22.652Z" fill="#EBF3FE"/>
<path d="M73.854 29V17.66H76.626C77.5873 17.66 78.334 17.786 78.866 18.038C79.4073 18.2807 79.79 18.668 80.014 19.2C80.238 19.7227 80.35 20.3947 80.35 21.216V25.346C80.35 26.186 80.238 26.8767 80.014 27.418C79.79 27.9593 79.412 28.3607 78.88 28.622C78.3573 28.874 77.6247 29 76.682 29H73.854ZM76.164 27.39H76.654C77.0833 27.39 77.3867 27.3247 77.564 27.194C77.7507 27.054 77.8673 26.8533 77.914 26.592C77.9607 26.3213 77.984 25.99 77.984 25.598V20.922C77.984 20.53 77.9513 20.2173 77.886 19.984C77.83 19.7413 77.7087 19.564 77.522 19.452C77.3447 19.34 77.0507 19.284 76.64 19.284H76.164V27.39ZM84.3154 29.14C83.7367 29.14 83.2421 29.0373 82.8314 28.832C82.4207 28.6173 82.1081 28.3093 81.8934 27.908C81.6881 27.5067 81.5854 27.0073 81.5854 26.41V23.498C81.5854 22.9007 81.6881 22.4013 81.8934 22C82.1081 21.5987 82.4207 21.2953 82.8314 21.09C83.2421 20.8753 83.7367 20.768 84.3154 20.768C84.8941 20.768 85.3887 20.8753 85.7994 21.09C86.2101 21.2953 86.5227 21.5987 86.7374 22C86.9521 22.4013 87.0594 22.9007 87.0594 23.498V26.41C87.0594 27.0073 86.9521 27.5067 86.7374 27.908C86.5227 28.3093 86.2101 28.6173 85.7994 28.832C85.3887 29.0373 84.8941 29.14 84.3154 29.14ZM84.3294 27.712C84.5067 27.712 84.6421 27.6653 84.7354 27.572C84.8287 27.4693 84.8894 27.334 84.9174 27.166C84.9454 26.9887 84.9594 26.788 84.9594 26.564V23.358C84.9594 23.1247 84.9454 22.924 84.9174 22.756C84.8894 22.588 84.8287 22.4527 84.7354 22.35C84.6421 22.2473 84.5067 22.196 84.3294 22.196C84.1521 22.196 84.0167 22.2473 83.9234 22.35C83.8301 22.4527 83.7647 22.588 83.7274 22.756C83.6994 22.924 83.6854 23.1247 83.6854 23.358V26.564C83.6854 26.788 83.6994 26.9887 83.7274 27.166C83.7647 27.334 83.8301 27.4693 83.9234 27.572C84.0167 27.6653 84.1521 27.712 84.3294 27.712ZM89.1412 29L87.9232 20.908H89.6872L90.3312 25.794L91.0592 20.908H92.5992L93.2572 25.878L93.9852 20.908H95.6372L94.3912 29H92.5852L91.8012 24.198L90.9472 29H89.1412ZM96.6694 29V20.908H98.7834V21.72C99.0727 21.4307 99.3761 21.202 99.6934 21.034C100.02 20.8567 100.365 20.768 100.729 20.768C101.065 20.768 101.336 20.852 101.541 21.02C101.756 21.188 101.915 21.412 102.017 21.692C102.12 21.9627 102.171 22.2707 102.171 22.616V29H100.071V22.966C100.071 22.742 100.034 22.574 99.9594 22.462C99.8941 22.35 99.7634 22.294 99.5674 22.294C99.4554 22.294 99.3294 22.3267 99.1894 22.392C99.0587 22.448 98.9234 22.5273 98.7834 22.63V29H96.6694ZM103.672 29V17.66H105.786V29H103.672ZM109.827 29.14C109.248 29.14 108.754 29.0373 108.343 28.832C107.932 28.6173 107.62 28.3093 107.405 27.908C107.2 27.5067 107.097 27.0073 107.097 26.41V23.498C107.097 22.9007 107.2 22.4013 107.405 22C107.62 21.5987 107.932 21.2953 108.343 21.09C108.754 20.8753 109.248 20.768 109.827 20.768C110.406 20.768 110.9 20.8753 111.311 21.09C111.722 21.2953 112.034 21.5987 112.249 22C112.464 22.4013 112.571 22.9007 112.571 23.498V26.41C112.571 27.0073 112.464 27.5067 112.249 27.908C112.034 28.3093 111.722 28.6173 111.311 28.832C110.9 29.0373 110.406 29.14 109.827 29.14ZM109.841 27.712C110.018 27.712 110.154 27.6653 110.247 27.572C110.34 27.4693 110.401 27.334 110.429 27.166C110.457 26.9887 110.471 26.788 110.471 26.564V23.358C110.471 23.1247 110.457 22.924 110.429 22.756C110.401 22.588 110.34 22.4527 110.247 22.35C110.154 22.2473 110.018 22.196 109.841 22.196C109.664 22.196 109.528 22.2473 109.435 22.35C109.342 22.4527 109.276 22.588 109.239 22.756C109.211 22.924 109.197 23.1247 109.197 23.358V26.564C109.197 26.788 109.211 26.9887 109.239 27.166C109.276 27.334 109.342 27.4693 109.435 27.572C109.528 27.6653 109.664 27.712 109.841 27.712ZM115.241 29.14C114.849 29.14 114.518 29.042 114.247 28.846C113.976 28.65 113.771 28.4027 113.631 28.104C113.491 27.8053 113.421 27.4973 113.421 27.18C113.421 26.676 113.519 26.2513 113.715 25.906C113.911 25.5607 114.168 25.2713 114.485 25.038C114.802 24.8047 115.157 24.604 115.549 24.436C115.941 24.268 116.333 24.114 116.725 23.974V23.218C116.725 23.0407 116.711 22.8867 116.683 22.756C116.655 22.6253 116.599 22.5273 116.515 22.462C116.44 22.3873 116.328 22.35 116.179 22.35C116.03 22.35 115.913 22.3827 115.829 22.448C115.754 22.504 115.698 22.5927 115.661 22.714C115.624 22.826 115.605 22.952 115.605 23.092L115.549 23.652L113.561 23.568C113.608 22.616 113.855 21.9113 114.303 21.454C114.76 20.9967 115.446 20.768 116.361 20.768C117.182 20.768 117.789 20.9967 118.181 21.454C118.573 21.902 118.769 22.4947 118.769 23.232V26.998C118.769 27.3153 118.774 27.6 118.783 27.852C118.802 28.0947 118.82 28.314 118.839 28.51C118.867 28.6967 118.89 28.86 118.909 29H117.005C116.977 28.7947 116.944 28.5707 116.907 28.328C116.87 28.0853 116.842 27.922 116.823 27.838C116.73 28.174 116.552 28.4773 116.291 28.748C116.03 29.0093 115.68 29.14 115.241 29.14ZM116.011 27.642C116.114 27.642 116.207 27.6187 116.291 27.572C116.384 27.5253 116.468 27.4647 116.543 27.39C116.618 27.3153 116.678 27.2453 116.725 27.18V24.954C116.529 25.0753 116.347 25.1967 116.179 25.318C116.011 25.43 115.866 25.556 115.745 25.696C115.624 25.836 115.53 25.99 115.465 26.158C115.4 26.326 115.367 26.5173 115.367 26.732C115.367 27.012 115.423 27.236 115.535 27.404C115.647 27.5627 115.806 27.642 116.011 27.642ZM121.922 29.14C121.306 29.14 120.83 28.9207 120.494 28.482C120.167 28.0433 120.004 27.3713 120.004 26.466V23.498C120.004 22.9753 120.069 22.5087 120.2 22.098C120.34 21.6873 120.55 21.3653 120.83 21.132C121.11 20.8893 121.469 20.768 121.908 20.768C122.197 20.768 122.473 20.8287 122.734 20.95C122.995 21.0713 123.233 21.2253 123.448 21.412V17.66H125.562V29H123.448V28.398C123.215 28.622 122.967 28.804 122.706 28.944C122.454 29.0747 122.193 29.14 121.922 29.14ZM122.776 27.74C122.869 27.74 122.972 27.7213 123.084 27.684C123.205 27.6373 123.327 27.5767 123.448 27.502V22.35C123.345 22.294 123.238 22.2473 123.126 22.21C123.014 22.1633 122.902 22.14 122.79 22.14C122.547 22.14 122.375 22.2427 122.272 22.448C122.179 22.6533 122.132 22.9007 122.132 23.19V26.606C122.132 26.8207 122.151 27.0167 122.188 27.194C122.225 27.362 122.291 27.4973 122.384 27.6C122.477 27.6933 122.608 27.74 122.776 27.74ZM133.069 29.14C132.491 29.14 131.996 29.0373 131.585 28.832C131.175 28.6173 130.862 28.3093 130.647 27.908C130.442 27.5067 130.339 27.0073 130.339 26.41V23.498C130.339 22.9007 130.442 22.4013 130.647 22C130.862 21.5987 131.175 21.2953 131.585 21.09C131.996 20.8753 132.491 20.768 133.069 20.768C133.648 20.768 134.143 20.8753 134.553 21.09C134.964 21.2953 135.277 21.5987 135.491 22C135.706 22.4013 135.813 22.9007 135.813 23.498V26.41C135.813 27.0073 135.706 27.5067 135.491 27.908C135.277 28.3093 134.964 28.6173 134.553 28.832C134.143 29.0373 133.648 29.14 133.069 29.14ZM133.083 27.712C133.261 27.712 133.396 27.6653 133.489 27.572C133.583 27.4693 133.643 27.334 133.671 27.166C133.699 26.9887 133.713 26.788 133.713 26.564V23.358C133.713 23.1247 133.699 22.924 133.671 22.756C133.643 22.588 133.583 22.4527 133.489 22.35C133.396 22.2473 133.261 22.196 133.083 22.196C132.906 22.196 132.771 22.2473 132.677 22.35C132.584 22.4527 132.519 22.588 132.481 22.756C132.453 22.924 132.439 23.1247 132.439 23.358V26.564C132.439 26.788 132.453 26.9887 132.481 27.166C132.519 27.334 132.584 27.4693 132.677 27.572C132.771 27.6653 132.906 27.712 133.083 27.712ZM137.097 29V20.908H139.211V21.72C139.5 21.4307 139.804 21.202 140.121 21.034C140.448 20.8567 140.793 20.768 141.157 20.768C141.493 20.768 141.764 20.852 141.969 21.02C142.184 21.188 142.342 21.412 142.445 21.692C142.548 21.9627 142.599 22.2707 142.599 22.616V29H140.499V22.966C140.499 22.742 140.462 22.574 140.387 22.462C140.322 22.35 140.191 22.294 139.995 22.294C139.883 22.294 139.757 22.3267 139.617 22.392C139.486 22.448 139.351 22.5273 139.211 22.63V29H137.097ZM148.691 29V19.382H146.941V17.66H152.737V19.382H151.015V29H148.691ZM153.654 29V17.66H155.754V21.65C156.053 21.3607 156.365 21.1413 156.692 20.992C157.019 20.8427 157.373 20.768 157.756 20.768C158.083 20.768 158.349 20.852 158.554 21.02C158.769 21.188 158.927 21.412 159.03 21.692C159.133 21.9627 159.184 22.2707 159.184 22.616V29H157.07V22.966C157.07 22.742 157.037 22.574 156.972 22.462C156.907 22.35 156.776 22.294 156.58 22.294C156.468 22.294 156.337 22.3267 156.188 22.392C156.048 22.448 155.903 22.5273 155.754 22.63V29H153.654ZM163.12 29.14C162.522 29.14 162.023 29.0327 161.622 28.818C161.22 28.594 160.917 28.272 160.712 27.852C160.506 27.4227 160.404 26.9093 160.404 26.312V23.596C160.404 22.98 160.506 22.4667 160.712 22.056C160.917 21.636 161.225 21.3187 161.636 21.104C162.046 20.88 162.541 20.768 163.12 20.768C163.736 20.768 164.235 20.88 164.618 21.104C165 21.328 165.28 21.6547 165.458 22.084C165.644 22.5133 165.738 23.036 165.738 23.652V25.066H162.49V26.634C162.49 26.8673 162.513 27.0587 162.56 27.208C162.616 27.3573 162.69 27.4647 162.784 27.53C162.877 27.586 162.994 27.614 163.134 27.614C163.264 27.614 163.376 27.586 163.47 27.53C163.572 27.4647 163.647 27.3667 163.694 27.236C163.74 27.1053 163.764 26.9327 163.764 26.718V25.948H165.724V26.62C165.724 27.4413 165.5 28.0667 165.052 28.496C164.604 28.9253 163.96 29.14 163.12 29.14ZM162.49 24.058H163.764V23.26C163.764 23.0267 163.74 22.84 163.694 22.7C163.647 22.5507 163.572 22.448 163.47 22.392C163.376 22.3267 163.255 22.294 163.106 22.294C162.966 22.294 162.849 22.3267 162.756 22.392C162.672 22.4573 162.606 22.574 162.56 22.742C162.513 22.9007 162.49 23.1293 162.49 23.428V24.058Z" fill="white"/>
<path d="M73.504 61L77.176 41.56H82.072L85.696 61H81.736L81.088 56.896H78.232L77.56 61H73.504ZM78.616 54.328H80.68L79.648 46.744L78.616 54.328ZM87.4428 65.56V47.128H91.3548V48.136C91.8188 47.72 92.3148 47.408 92.8428 47.2C93.3708 46.992 93.8748 46.888 94.3548 46.888C94.8828 46.888 95.3308 46.992 95.6988 47.2C96.0828 47.408 96.3948 47.704 96.6348 48.088C96.8748 48.456 97.0508 48.888 97.1628 49.384C97.2748 49.88 97.3308 50.408 97.3308 50.968V56.944C97.3308 57.808 97.2108 58.56 96.9708 59.2C96.7468 59.84 96.4108 60.344 95.9628 60.712C95.5148 61.064 94.9628 61.24 94.3068 61.24C93.8108 61.24 93.3068 61.128 92.7948 60.904C92.2988 60.664 91.8188 60.344 91.3548 59.944V65.56H87.4428ZM92.3867 58.72C92.6428 58.72 92.8428 58.648 92.9868 58.504C93.1308 58.36 93.2348 58.176 93.2988 57.952C93.3788 57.712 93.4188 57.448 93.4188 57.16V50.68C93.4188 50.408 93.3868 50.168 93.3228 49.96C93.2588 49.736 93.1548 49.56 93.0108 49.432C92.8668 49.304 92.6828 49.24 92.4588 49.24C92.2508 49.24 92.0508 49.288 91.8588 49.384C91.6828 49.464 91.5148 49.576 91.3548 49.72V58.36C91.5308 58.472 91.6988 58.56 91.8588 58.624C92.0348 58.688 92.2108 58.72 92.3867 58.72ZM99.5599 65.56V47.128H103.472V48.136C103.936 47.72 104.432 47.408 104.96 47.2C105.488 46.992 105.992 46.888 106.472 46.888C107 46.888 107.448 46.992 107.816 47.2C108.2 47.408 108.512 47.704 108.752 48.088C108.992 48.456 109.168 48.888 109.28 49.384C109.392 49.88 109.448 50.408 109.448 50.968V56.944C109.448 57.808 109.328 58.56 109.088 59.2C108.864 59.84 108.528 60.344 108.08 60.712C107.632 61.064 107.08 61.24 106.424 61.24C105.928 61.24 105.424 61.128 104.912 60.904C104.416 60.664 103.936 60.344 103.472 59.944V65.56H99.5599ZM104.504 58.72C104.76 58.72 104.96 58.648 105.104 58.504C105.248 58.36 105.352 58.176 105.416 57.952C105.496 57.712 105.536 57.448 105.536 57.16V50.68C105.536 50.408 105.504 50.168 105.44 49.96C105.376 49.736 105.272 49.56 105.128 49.432C104.984 49.304 104.8 49.24 104.576 49.24C104.368 49.24 104.168 49.288 103.976 49.384C103.8 49.464 103.632 49.576 103.472 49.72V58.36C103.648 58.472 103.816 58.56 103.976 58.624C104.152 58.688 104.328 58.72 104.504 58.72ZM123.194 61.288C121.978 61.288 120.962 61.072 120.146 60.64C119.33 60.208 118.714 59.544 118.298 58.648C117.882 57.736 117.65 56.56 117.602 55.12L121.274 54.568C121.29 55.4 121.362 56.072 121.49 56.584C121.634 57.096 121.826 57.464 122.066 57.688C122.322 57.912 122.626 58.024 122.978 58.024C123.426 58.024 123.714 57.872 123.842 57.568C123.986 57.264 124.058 56.944 124.058 56.608C124.058 55.808 123.866 55.136 123.482 54.592C123.098 54.032 122.578 53.472 121.922 52.912L120.242 51.448C119.506 50.824 118.882 50.12 118.37 49.336C117.874 48.536 117.626 47.552 117.626 46.384C117.626 44.736 118.114 43.48 119.09 42.616C120.066 41.736 121.394 41.296 123.074 41.296C124.114 41.296 124.946 41.472 125.57 41.824C126.21 42.176 126.69 42.64 127.01 43.216C127.346 43.776 127.57 44.376 127.682 45.016C127.81 45.64 127.882 46.24 127.898 46.816L124.202 47.272C124.186 46.696 124.146 46.2 124.082 45.784C124.034 45.352 123.922 45.024 123.746 44.8C123.57 44.56 123.298 44.44 122.93 44.44C122.53 44.44 122.234 44.608 122.042 44.944C121.866 45.28 121.778 45.616 121.778 45.952C121.778 46.672 121.946 47.264 122.282 47.728C122.634 48.176 123.09 48.648 123.65 49.144L125.258 50.56C126.106 51.28 126.818 52.096 127.394 53.008C127.986 53.92 128.282 55.048 128.282 56.392C128.282 57.304 128.074 58.136 127.658 58.888C127.242 59.624 126.65 60.208 125.882 60.64C125.13 61.072 124.234 61.288 123.194 61.288ZM134.49 61.144C133.45 61.144 132.65 60.992 132.09 60.688C131.53 60.384 131.138 59.944 130.914 59.368C130.706 58.776 130.602 58.064 130.602 57.232V49.696H129.258V47.128H130.602V42.904H134.562V47.128H136.53V49.696H134.562V56.848C134.562 57.248 134.674 57.536 134.898 57.712C135.138 57.888 135.434 57.976 135.786 57.976C135.994 57.976 136.186 57.968 136.362 57.952C136.538 57.92 136.698 57.896 136.842 57.88V60.952C136.634 60.984 136.306 61.024 135.858 61.072C135.41 61.12 134.954 61.144 134.49 61.144ZM143.12 61.24C142.128 61.24 141.264 61.072 140.528 60.736C139.808 60.4 139.248 59.896 138.848 59.224C138.464 58.552 138.272 57.712 138.272 56.704V51.424C138.272 50.416 138.464 49.576 138.848 48.904C139.248 48.232 139.808 47.728 140.528 47.392C141.264 47.056 142.128 46.888 143.12 46.888C144.112 46.888 144.968 47.056 145.688 47.392C146.424 47.728 146.992 48.232 147.392 48.904C147.792 49.576 147.992 50.416 147.992 51.424V56.704C147.992 57.712 147.792 58.552 147.392 59.224C146.992 59.896 146.424 60.4 145.688 60.736C144.968 61.072 144.112 61.24 143.12 61.24ZM143.144 58.648C143.4 58.648 143.6 58.584 143.744 58.456C143.888 58.312 143.984 58.12 144.032 57.88C144.096 57.624 144.128 57.32 144.128 56.968V51.16C144.128 50.808 144.096 50.512 144.032 50.272C143.984 50.016 143.888 49.824 143.744 49.696C143.6 49.552 143.4 49.48 143.144 49.48C142.888 49.48 142.688 49.552 142.544 49.696C142.4 49.824 142.296 50.016 142.232 50.272C142.168 50.512 142.136 50.808 142.136 51.16V56.968C142.136 57.32 142.168 57.624 142.232 57.88C142.296 58.12 142.4 58.312 142.544 58.456C142.688 58.584 142.888 58.648 143.144 58.648ZM150.21 61V47.128H154.122V49.432C154.57 48.632 155.018 48.024 155.466 47.608C155.914 47.176 156.458 46.96 157.098 46.96C157.226 46.96 157.338 46.968 157.434 46.984C157.53 46.984 157.618 47 157.698 47.032V50.92C157.522 50.84 157.322 50.776 157.098 50.728C156.89 50.664 156.666 50.632 156.426 50.632C155.978 50.632 155.562 50.752 155.178 50.992C154.794 51.232 154.442 51.56 154.122 51.976V61H150.21ZM163.862 61.24C162.854 61.24 161.99 61.064 161.27 60.712C160.55 60.344 159.998 59.816 159.614 59.128C159.23 58.424 159.038 57.584 159.038 56.608V51.52C159.038 50.528 159.23 49.688 159.614 49C159.998 48.312 160.55 47.792 161.27 47.44C162.006 47.072 162.87 46.888 163.862 46.888C164.886 46.888 165.734 47.064 166.406 47.416C167.094 47.768 167.606 48.288 167.942 48.976C168.294 49.664 168.47 50.512 168.47 51.52V54.304H162.902V56.968C162.902 57.32 162.942 57.608 163.022 57.832C163.102 58.056 163.214 58.216 163.358 58.312C163.502 58.408 163.67 58.456 163.862 58.456C164.054 58.456 164.222 58.416 164.366 58.336C164.526 58.24 164.646 58.096 164.726 57.904C164.822 57.712 164.87 57.448 164.87 57.112V55.648H168.47V56.992C168.47 58.4 168.062 59.464 167.246 60.184C166.43 60.888 165.302 61.24 163.862 61.24ZM162.902 52.48H164.87V51.088C164.87 50.72 164.822 50.432 164.726 50.224C164.646 50.016 164.526 49.872 164.366 49.792C164.222 49.712 164.046 49.672 163.838 49.672C163.646 49.672 163.478 49.72 163.334 49.816C163.206 49.912 163.102 50.08 163.022 50.32C162.942 50.544 162.902 50.872 162.902 51.304V52.48Z" fill="white"/>
</svg>
