<svg width="153" height="48" viewBox="0 0 153 48" fill="none" xmlns="http://www.w3.org/2000/svg">
<path d="M12.4613 0.195779C12.2759 0.667201 12.5041 2.51004 12.889 3.61002C13.4878 5.39571 14.6142 6.88141 16.1683 7.93854C17.3659 8.75281 19.6329 9.42423 21.1728 9.42423C21.8857 9.42423 21.9569 9.39566 22.0425 9.05281C22.2564 8.22425 21.7859 6.08142 21.073 4.58144C20.7593 3.91002 20.3173 3.3386 19.5474 2.56718C17.922 0.967197 16.2253 0.22435 13.7302 0.0386381C12.7037 -0.0327892 12.5468 -0.0185041 12.4613 0.195779ZM15.9972 1.43862C18.7917 2.35289 20.6595 4.65286 21.0302 7.62426L21.13 8.4671L20.1747 8.3671C16.981 8.03854 14.4146 5.85285 13.6162 2.76717C13.5021 2.31004 13.4023 1.71005 13.4023 1.45291V0.952912L14.2578 1.05291C14.7283 1.11005 15.5124 1.28148 15.9972 1.43862Z" fill="#3B82F6"/>
<path d="M22.8267 11.0385C22.7126 11.1528 22.6698 11.1385 22.6698 10.9814C22.6698 10.6956 22.8552 10.4956 22.9265 10.7099C22.9692 10.8099 22.9122 10.9528 22.8267 11.0385Z" fill="#3B82F6"/>
<path fill-rule="evenodd" clip-rule="evenodd" d="M29.0716 1.83861C26.7903 2.45289 24.9083 4.09573 23.7534 6.45284C23.0833 7.80997 22.3847 10.2242 22.3847 11.1671C22.3847 11.6671 22.4132 11.7099 22.7981 11.7099C23.1974 11.7099 23.2259 11.6671 23.3685 10.8814C24.1241 6.83855 25.6069 4.45287 28.102 3.22431C29.2997 2.6386 30.369 2.39575 30.369 2.72432C30.369 2.8386 30.2407 3.32431 30.0981 3.8243C29.7987 4.79572 29.3139 5.70999 28.7009 6.43855C28.1876 7.03855 26.8331 7.90996 25.9491 8.20996C25.3931 8.39567 25.222 8.52424 25.1079 8.88138C25.0224 9.12423 24.9796 9.3528 25.0224 9.39566C25.1507 9.52423 26.4481 9.09566 27.2893 8.65281C29.5991 7.45283 31.2102 4.93857 31.2245 2.52432V1.56719L30.6257 1.58147C30.2835 1.58147 29.5848 1.69576 29.0716 1.83861ZM22.6698 10.9814C22.6698 11.1385 22.7126 11.1528 22.8267 11.0385C22.9122 10.9528 22.9692 10.8099 22.9265 10.7099C22.8552 10.4956 22.6698 10.6956 22.6698 10.9814Z" fill="#3B82F6"/>
<path d="M0.0998043 2.95289C0.0427733 2.99574 0 4.76715 0 6.86712C0 10.3956 0.0142578 10.7099 0.25664 10.8385C0.413475 10.9242 0.598826 10.9242 0.755661 10.8385C0.969528 10.7099 0.998043 10.3671 0.998043 7.2814V3.85288H4.46268C6.35896 3.85288 7.9986 3.79573 8.09841 3.72431C8.21247 3.66716 8.2695 3.45288 8.24098 3.26717L8.19821 2.92432L4.19178 2.88146C1.99609 2.86717 0.156835 2.89574 0.0998043 2.95289ZM0.869723 3.32431C0.684372 3.51002 0.499022 3.36717 0.641599 3.15288C0.684372 3.06717 0.798434 3.0386 0.883981 3.08146C0.969528 3.1386 0.969527 3.22431 0.869723 3.32431ZM7.69919 3.28145C7.69919 3.35288 7.59938 3.42431 7.48532 3.42431C7.37126 3.42431 7.27146 3.35288 7.27146 3.28145C7.27146 3.19574 7.37126 3.1386 7.48532 3.1386C7.59938 3.1386 7.69919 3.19574 7.69919 3.28145ZM0.712888 9.52423C0.712888 10.2385 0.670115 10.5814 0.57031 10.4814C0.44199 10.3528 0.527537 8.42425 0.655857 8.42425C0.684372 8.42425 0.712888 8.92424 0.712888 9.52423Z" fill="#3B82F6"/>
<path d="M0.869723 3.32431C0.684372 3.51002 0.499022 3.36717 0.641599 3.15288C0.684372 3.06717 0.798434 3.0386 0.883981 3.08146C0.969528 3.1386 0.969527 3.22431 0.869723 3.32431Z" fill="#3B82F6"/>
<path d="M7.69919 3.28145C7.69919 3.35288 7.59938 3.42431 7.48532 3.42431C7.37126 3.42431 7.27146 3.35288 7.27146 3.28145C7.27146 3.19574 7.37126 3.1386 7.48532 3.1386C7.59938 3.1386 7.69919 3.19574 7.69919 3.28145Z" fill="#3B82F6"/>
<path d="M0.712888 9.52423C0.712888 10.2385 0.670115 10.5814 0.57031 10.4814C0.44199 10.3528 0.527537 8.42425 0.655857 8.42425C0.684372 8.42425 0.712888 8.92424 0.712888 9.52423Z" fill="#3B82F6"/>
<path d="M41.4473 2.95288C41.2905 3.11002 41.3332 3.53859 41.5329 3.66716C41.6184 3.7243 43.2723 3.81002 45.1971 3.85287L48.6902 3.9243L48.7188 7.20997C48.733 9.00995 48.7473 10.5814 48.7473 10.6671C48.7615 10.7671 48.9469 10.8528 49.175 10.8528C49.4031 10.8528 49.6027 10.7671 49.6313 10.6671C49.6598 10.5814 49.6598 8.79567 49.617 6.70998L49.5457 2.92431L45.5393 2.88146C43.3436 2.86717 41.5043 2.89574 41.4473 2.95288ZM42.3455 3.28145C42.3455 3.35288 42.2457 3.42431 42.1317 3.42431C42.0176 3.42431 41.9178 3.35288 41.9178 3.28145C41.9178 3.19574 42.0176 3.1386 42.1317 3.1386C42.2457 3.1386 42.3455 3.19574 42.3455 3.28145Z" fill="#3B82F6"/>
<path d="M42.3455 3.28145C42.3455 3.35288 42.2457 3.42431 42.1317 3.42431C42.0176 3.42431 41.9178 3.35288 41.9178 3.28145C41.9178 3.19574 42.0176 3.1386 42.1317 3.1386C42.2457 3.1386 42.3455 3.19574 42.3455 3.28145Z" fill="#3B82F6"/>
<path d="M40.7772 10.6528C39.5938 11.1671 39.1661 11.9242 39.1803 13.4813C39.2088 15.367 38.7668 15.6384 37.7973 14.3527C37.0987 13.4242 35.7442 12.267 34.8032 11.7813C33.2776 11.0099 32.2653 10.7814 30.4403 10.7814C28.4585 10.7956 28.0022 10.9099 25.8065 11.9813C23.2401 13.2385 21.9569 13.2385 19.3906 11.9813C17.2234 10.9242 16.7244 10.7956 14.8281 10.7814C12.9318 10.7814 12.2332 10.9385 10.622 11.7528C9.76657 12.1956 9.182 12.6385 8.25524 13.5527C7.18591 14.6242 6.92927 14.967 6.30193 16.2813C5.3324 18.3241 5.11854 19.2384 5.03299 21.6955C4.94744 23.9098 5.11854 25.5955 5.57479 27.4954C6.94353 33.0096 10.2798 38.2096 13.4736 39.7953C14.5714 40.3381 14.6285 40.3524 16.097 40.3381C17.8222 40.3381 18.2214 40.1953 20.5882 38.781C21.3296 38.3381 22.014 37.9953 22.0995 38.0239C22.3562 38.1096 20.8448 40.2524 20.2603 40.6524C19.9751 40.8381 19.4048 41.0953 19.0056 41.2095C18.6064 41.3238 18.1929 41.5238 18.0931 41.6667C17.8935 41.8952 17.7794 42.7952 17.5941 45.5666C17.48 47.1095 17.6939 47.7809 18.307 47.938C19.0911 48.138 19.305 47.9095 19.7327 46.4238C20.3458 44.2524 23.1689 41.2953 27.0327 38.7667C28.9575 37.4953 29.9128 36.6525 31.2673 34.9525C32.7358 33.1096 32.8926 32.8668 32.636 32.6954C32.2083 32.4239 31.9516 32.5954 31.1675 33.6382C29.813 35.4525 28.544 36.681 27.0185 37.681C22.7696 40.4667 19.9181 43.3952 18.9771 45.938C18.806 46.3666 18.6777 46.7809 18.6777 46.8523C18.6777 46.938 18.6064 46.9952 18.5066 46.9952C18.3497 46.9952 18.3925 45.8095 18.6491 43.2809C18.7632 42.281 18.6919 42.3524 20.0179 41.7952C20.9732 41.381 21.5577 40.8238 22.456 39.4238C23.511 37.8096 24.338 36.9953 25.5927 36.3953C26.106 36.1525 26.6905 35.7668 26.8901 35.5382C27.0755 35.2953 27.7313 34.1239 28.3302 32.9239C29.371 30.8382 29.4138 30.7097 29.2284 30.2954C29.1286 30.0383 29.0003 29.8668 28.9433 29.8811C28.872 29.9097 28.2446 31.0811 27.546 32.4954C26.7903 33.9953 26.1202 35.1382 25.9491 35.2525C25.778 35.3525 25.0794 35.6525 24.4093 35.9239C22.6841 36.581 21.6718 37.0667 20.0892 38.0096C18.0931 39.1953 17.2519 39.4667 15.7976 39.4096C14.3005 39.3381 13.4451 38.9239 12.0621 37.5953C8.66872 34.2811 6.44451 29.2525 5.974 23.7812C5.83142 22.0526 5.83142 21.5812 6.03103 20.3384C6.30193 18.6813 6.54431 17.8527 7.14314 16.667C8.69723 13.5813 11.6058 11.6671 14.7425 11.6671C16.2824 11.6813 17.0095 11.8671 18.7917 12.767C20.6025 13.6813 21.572 13.9099 23.1403 13.8099C24.2952 13.7385 24.5233 13.667 26.0632 12.9242C28.3017 11.8385 28.8862 11.6671 30.5116 11.6813C32.5505 11.6956 34.3469 12.3813 35.8012 13.7099L36.4286 14.267L35.8583 14.2813C35.5446 14.2813 34.518 14.0956 33.577 13.8527C30.8253 13.167 29.8557 13.3242 28.7436 14.5813C28.5013 14.8527 27.4177 16.0527 26.3198 17.2527C25.2077 18.4527 24.2239 19.6384 24.1241 19.8812C23.7392 20.7955 24.2524 21.8526 25.1935 22.0955C25.9206 22.2812 26.5907 22.0384 27.1183 21.4241C27.4462 21.0241 27.5175 20.7955 27.5175 20.1955C27.5175 19.5241 27.5745 19.4098 28.0022 19.0241C28.2731 18.7955 28.8007 18.3955 29.1856 18.1384C29.5563 17.8813 30.2122 17.3813 30.6257 17.0241L31.3813 16.3956L32.2653 16.8241C32.7501 17.0527 33.4487 17.3527 33.8194 17.4956C34.1901 17.6241 34.6606 17.9241 34.8602 18.1527C35.1739 18.5384 35.2167 18.7241 35.2167 19.7527C35.2167 21.2384 35.345 21.4669 35.7585 20.7241C36.1434 20.0384 36.1862 18.767 35.844 18.0955C35.459 17.3241 35.0741 17.0241 34.019 16.6241C33.463 16.4099 32.636 16.0527 32.194 15.8384C31.7378 15.6099 31.3528 15.4242 31.31 15.4242C31.2815 15.4242 30.9679 15.6527 30.6257 15.9384C30.2977 16.2241 29.3995 16.8956 28.6296 17.4384C26.8759 18.6813 26.662 18.967 26.662 19.9098C26.662 20.7955 26.3056 21.2812 25.6782 21.2812C25.2077 21.2812 24.9226 20.9955 24.9226 20.5098C24.9226 20.0527 25.0224 19.9098 27.0327 17.767C27.988 16.7527 29.0003 15.6527 29.2997 15.3099C30.3405 14.1385 30.9536 14.0385 33.3204 14.7099C34.1473 14.9384 35.1026 15.1384 35.4163 15.1384C36.7993 15.1384 37.7831 15.8527 38.2108 17.1384C38.3106 17.4384 38.4389 17.667 38.4959 17.6384C38.553 17.5956 38.6528 17.2241 38.6956 16.8099C38.7811 16.1527 38.8524 16.0384 39.2231 15.867C39.8647 15.5813 40.0643 15.0527 40.0643 13.6527C40.0643 12.567 40.1071 12.3956 40.4207 12.0099C41.1907 11.1099 42.5309 11.0814 43.3578 11.9385C43.8141 12.4099 43.8426 12.4956 43.8426 13.467C43.8426 14.2099 43.7428 14.7242 43.5004 15.3099C43.1582 16.167 42.8446 16.3956 42.3598 16.1527C42.203 16.067 41.8608 15.9956 41.5899 15.9956C41.2049 15.9956 41.0053 16.0956 40.7059 16.4527C40.2924 16.9384 40.3067 16.8527 40.5776 18.6098C40.6774 19.2384 40.4493 20.1955 39.9788 21.1669C39.7221 21.6526 39.1946 22.2098 37.9542 23.2669C36.3288 24.624 35.3592 25.7669 35.3592 26.2812C35.3592 26.4097 35.5018 26.5812 35.6729 26.6669C35.9581 26.7954 36.0151 26.7383 36.2575 26.2526C36.5284 25.724 36.9276 25.324 39.3514 23.2526C39.936 22.7526 40.5633 22.1241 40.7344 21.8669C41.0909 21.3384 41.2762 20.1098 41.1479 19.2527C41.0623 18.7098 41.0766 18.6813 41.2905 18.867C41.433 18.9813 41.818 19.4384 42.1459 19.8955C42.8446 20.8384 44.5412 22.7098 44.6981 22.7098C44.7551 22.7098 45.0973 22.4098 45.468 22.0241C45.8244 21.6526 46.5944 20.9098 47.1789 20.3669C47.7492 19.8241 48.2768 19.2241 48.3481 19.0384C48.4193 18.8384 48.4051 18.4384 48.3053 18.0098C48.177 17.3956 48.177 17.2527 48.3908 16.9384C48.5477 16.6813 48.7473 16.567 49.0182 16.567C49.56 16.567 49.7596 16.8099 49.7596 17.4813C49.7596 17.9955 49.5457 18.3813 48.1485 20.4241C46.2237 23.2669 45.4252 24.1383 44.8121 24.1383C44.2846 24.1383 42.6877 23.0526 41.818 22.0955L41.2049 21.4384L40.9768 21.7812C40.6916 22.2241 40.82 22.4812 41.875 23.3812C43.586 24.8669 44.9832 25.3669 45.8387 24.7955C46.3092 24.4955 47.1647 23.3955 48.8043 21.0241C50.4867 18.567 50.5865 18.4098 50.6293 17.8384C50.6863 16.8813 50.615 16.5813 50.1731 16.1527C49.8166 15.7813 49.617 15.7099 49.0895 15.7099C47.8918 15.7099 47.2074 16.6099 47.407 17.9384C47.4498 18.2813 47.4641 18.6813 47.407 18.8241C47.3643 18.967 46.7512 19.6241 46.0383 20.2812L44.7551 21.4669L44.028 20.7669C43.643 20.3812 43.1297 19.7812 42.8873 19.4241C42.645 19.067 42.1602 18.4813 41.7895 18.0955C41.2477 17.5384 41.1621 17.3813 41.2905 17.167C41.4616 16.9241 41.6754 16.9098 42.645 17.0813C43.3864 17.2098 43.7 16.9813 44.1991 15.9384C44.6696 14.9242 44.8692 13.6956 44.7123 12.6528C44.4557 10.9956 42.3883 9.95279 40.7772 10.6528ZM16.7956 11.1814C16.924 11.3242 16.8928 11.046 16.5934 11.0174C15.966 10.9888 15.8831 11.2671 16.1826 11.1385C16.5818 10.9671 16.6245 10.9671 16.7956 11.1814ZM33.7766 11.5671C34.1616 11.5671 34.1616 11.7956 33.7909 11.8956C33.6341 11.9385 33.5057 11.9099 33.5057 11.8242C33.5057 11.7528 33.4344 11.7385 33.3346 11.7956C33.2348 11.8671 33.2206 11.8385 33.2776 11.7242C33.3489 11.6099 33.3204 11.5528 33.2063 11.5813C33.0923 11.5956 32.9069 11.5956 32.7928 11.5813C32.6075 11.5671 32.6075 11.5385 32.7786 11.4385C32.9069 11.3528 33.0923 11.3528 33.2348 11.4385C33.3774 11.5099 33.6198 11.5671 33.7766 11.5671ZM13.6447 39.1953C13.6304 39.2667 13.773 39.3381 13.9583 39.3381C14.3433 39.3524 14.5429 39.6667 14.158 39.6667C13.9013 39.6667 13.0886 39.281 13.331 39.281C13.4166 39.281 13.3167 39.1524 13.1171 38.9953L12.7607 38.7096L13.2169 38.881C13.4593 38.981 13.6589 39.1096 13.6447 39.1953ZM18.421 47.0952C18.5066 47.1952 18.6206 47.238 18.6919 47.1952C18.863 47.0952 19.0341 47.5523 18.8773 47.7095C18.806 47.7809 18.5208 47.6237 18.2214 47.3523C17.8507 47.0095 17.7652 46.8523 17.9077 46.7952C18.0218 46.7523 18.1216 46.6095 18.1216 46.4666C18.1359 46.3238 18.1786 46.3666 18.2072 46.5666C18.2499 46.7666 18.3355 47.0095 18.421 47.0952Z" fill="#3B82F6"/>
<path d="M33.7766 11.5671C34.1616 11.5671 34.1616 11.7956 33.7909 11.8956C33.6341 11.9385 33.5057 11.9099 33.5057 11.8242C33.5057 11.7528 33.4344 11.7385 33.3346 11.7956C33.2348 11.8671 33.2206 11.8385 33.2776 11.7242C33.3489 11.6099 33.3204 11.5528 33.2063 11.5813C33.0923 11.5956 32.9069 11.5956 32.7928 11.5813C32.6075 11.5671 32.6075 11.5385 32.7786 11.4385C32.9069 11.3528 33.0923 11.3528 33.2348 11.4385C33.3774 11.5099 33.6198 11.5671 33.7766 11.5671Z" fill="#3B82F6"/>
<path d="M18.421 47.0952C18.5066 47.1952 18.6206 47.238 18.6919 47.1952C18.863 47.0952 19.0341 47.5523 18.8773 47.7095C18.806 47.7809 18.5208 47.6237 18.2214 47.3523C17.8507 47.0095 17.7652 46.8523 17.9077 46.7952C18.0218 46.7523 18.1216 46.6095 18.1216 46.4666C18.1359 46.3238 18.1786 46.3666 18.2072 46.5666C18.2499 46.7666 18.3355 47.0095 18.421 47.0952Z" fill="#3B82F6"/>
<path d="M13.6447 39.1953C13.6304 39.2667 13.773 39.3381 13.9583 39.3381C14.3433 39.3524 14.5429 39.6667 14.158 39.6667C13.9013 39.6667 13.0886 39.281 13.331 39.281C13.4166 39.281 13.3167 39.1524 13.1171 38.9953L12.7607 38.7096L13.2169 38.881C13.4593 38.981 13.6589 39.1096 13.6447 39.1953Z" fill="#3B82F6"/>
<path d="M63.1048 15.067C60.8236 15.6956 59.1554 17.1956 58.3 19.3527C57.858 20.4812 57.8152 23.0812 58.2144 24.2098C58.7562 25.6954 59.5832 26.7811 60.8521 27.624C62.2351 28.5383 63.4328 28.8811 65.215 28.8954C67.2111 28.8954 68.5656 28.5526 69.9913 27.6526L70.5759 27.2811V24.4955V21.7098H69.2214H67.8669V23.6955V25.6812L67.2681 25.924C65.5001 26.6383 63.3044 26.1954 62.0498 24.8669C60.9377 23.6812 60.624 21.5241 61.3369 19.967C62.5773 17.267 65.9564 16.5956 68.423 18.5527L68.9648 18.9812L69.8488 18.0813C70.5189 17.4098 70.7185 17.1098 70.6329 16.9527C70.2765 16.3527 68.8079 15.4813 67.4535 15.0813C66.4982 14.7956 64.1029 14.7956 63.1048 15.067Z" fill="#3B82F6"/>
<path d="M78.0897 15.067C75.5233 15.767 73.5415 17.8527 73.014 20.3955C72.2726 23.9669 74.34 27.4811 77.8331 28.5811C79.1876 29.0097 81.4261 29.0097 82.695 28.5668C84.8622 27.8383 86.2309 26.5383 87.1006 24.424C87.4999 23.4383 87.6424 21.5384 87.4143 20.3812C86.8725 17.8098 84.8907 15.7527 82.31 15.0813C81.2692 14.8099 79.0593 14.7956 78.0897 15.067ZM81.5116 17.6384C83.0372 18.0955 84.078 19.3527 84.4059 21.0955C84.6911 22.6955 84.0067 24.5669 82.8233 25.424C80.4423 27.1526 77.106 26.124 76.1935 23.3955C75.8655 22.3812 75.9653 20.7098 76.3931 19.8527C77.4054 17.8955 79.43 17.0241 81.5116 17.6384Z" fill="#3B82F6"/>
<path d="M94.5147 15.067C92.1907 15.7099 90.437 17.3384 89.6813 19.5812C89.2393 20.8812 89.2393 23.0098 89.6956 24.2098C90.3514 25.9955 91.435 27.2383 93.0604 28.0954C94.1867 28.6954 95.199 28.9097 96.8102 28.8811C98.8775 28.8668 100.36 28.2811 101.629 26.9812L102.1 26.4954L101.415 25.8526C100.075 24.5955 100.232 24.6383 99.4764 25.2812C98.5639 26.0383 97.5943 26.3383 96.3824 26.2526C95.1705 26.1669 94.258 25.724 93.4596 24.824C91.9198 23.0955 92.0623 20.0955 93.7875 18.5384C95.3987 17.0813 98.1076 17.0956 99.6332 18.567C100.175 19.0955 100.032 19.1384 101.43 17.8241L102.143 17.167L101.515 16.567C100.774 15.8956 99.7473 15.3527 98.6494 15.067C97.7084 14.8099 95.4129 14.8099 94.5147 15.067Z" fill="#3B82F6"/>
<path d="M107.789 16.7384C103.568 26.3954 103.112 27.4383 102.784 28.1383L102.542 28.6383L103.982 28.6811C104.766 28.6954 105.493 28.6954 105.579 28.6668C105.664 28.624 105.978 27.9811 106.263 27.2383C106.677 26.2097 106.876 25.8669 107.119 25.7955C107.29 25.7526 108.701 25.7097 110.255 25.7097C113.563 25.7097 113.349 25.6097 114.076 27.4811L114.561 28.7097H116.172H117.769L117.555 28.2097C117.441 27.9383 117.242 27.4954 117.127 27.224C117.013 26.9526 116.628 26.1097 116.272 25.3526C115.916 24.5955 115.63 23.9383 115.63 23.9098C115.63 23.8812 115.417 23.3812 115.16 22.8241C114.889 22.2526 114.333 21.0098 113.934 20.067C112.636 17.1241 111.923 15.5099 111.795 15.2813C111.71 15.1099 111.325 15.0527 110.127 15.0242L108.559 14.9813L107.789 16.7384ZM110.355 18.5241C110.455 18.7527 110.911 19.8527 111.382 20.9955C111.852 22.1384 112.266 23.1526 112.308 23.2383C112.365 23.3812 111.881 23.4241 110.155 23.4241C108.929 23.4241 107.931 23.3812 107.931 23.3098C107.931 23.1098 109.984 18.1384 110.07 18.1384C110.127 18.1384 110.255 18.3098 110.355 18.5241Z" fill="#3B82F6"/>
<path d="M119.48 21.8526V28.7097H124.47H129.46V27.424V26.1383H126.039C123.401 26.1383 122.617 26.0954 122.602 25.9526C122.588 25.8669 122.588 23.4812 122.602 20.6812C122.631 17.867 122.602 15.4384 122.545 15.2813C122.46 15.0242 122.332 14.9956 120.963 14.9956H119.48V21.8526Z" fill="#3B82F6"/>
<path d="M140.738 15.6527C140.567 16.0099 139.669 18.0241 138.742 20.1098C137.815 22.2098 136.846 24.3669 136.589 24.924C136.333 25.4669 135.848 26.5526 135.506 27.324L134.893 28.724L135.606 28.6811L136.318 28.6383L137.017 27.024C137.402 26.124 137.787 25.324 137.858 25.224C137.972 25.0955 138.985 25.0383 141.651 25.024C145.144 24.9955 145.857 25.0669 145.857 25.424C145.857 25.4955 146.185 26.2669 146.584 27.124L147.325 28.7097H148.01C148.395 28.7097 148.708 28.6954 148.708 28.6668C148.708 28.6383 148.238 27.5954 147.653 26.3383C146.299 23.4098 145.942 22.6241 145.287 21.1384C144.987 20.4669 144.46 19.3098 144.117 18.567C143.761 17.8241 143.29 16.7956 143.077 16.2813C142.521 15.0242 142.492 14.9956 141.722 14.9956C141.052 14.9956 141.038 15.0099 140.738 15.6527ZM142.492 15.4099C142.521 15.4527 142.592 15.767 142.649 16.0956C142.72 16.5241 142.692 16.7099 142.578 16.7099C142.492 16.7099 142.449 16.6527 142.492 16.5956C142.521 16.5384 142.506 16.3956 142.435 16.2813C142.335 16.1099 142.292 16.1241 142.207 16.3241C142.121 16.567 142.107 16.567 141.922 16.3241C141.736 16.0813 141.708 16.0813 141.437 16.4241L141.152 16.7813V16.3813C141.152 16.167 141.095 15.9956 141.009 15.9956C140.61 15.9956 141.052 15.3527 141.523 15.2527C141.836 15.1956 142.421 15.2813 142.492 15.4099ZM143.077 19.2384C143.761 20.7955 144.474 22.3526 144.645 22.7098C144.816 23.0669 145.016 23.4955 145.058 23.6669L145.158 23.9955H141.808C139.954 23.9955 138.443 23.9526 138.443 23.9098C138.443 23.824 139.256 21.9384 140.639 18.7813C140.81 18.3813 141.109 17.6956 141.309 17.2527C141.494 16.7956 141.694 16.4241 141.736 16.4241C141.793 16.4241 142.392 17.6956 143.077 19.2384Z" fill="#3B82F6"/>
<path d="M142.492 15.4099C142.521 15.4527 142.592 15.767 142.649 16.0956C142.72 16.5241 142.692 16.7099 142.578 16.7099C142.492 16.7099 142.449 16.6527 142.492 16.5956C142.521 16.5384 142.506 16.3956 142.435 16.2813C142.335 16.1099 142.292 16.1241 142.207 16.3241C142.121 16.567 142.107 16.567 141.922 16.3241C141.736 16.0813 141.708 16.0813 141.437 16.4241L141.152 16.7813V16.3813C141.152 16.167 141.095 15.9956 141.009 15.9956C140.61 15.9956 141.052 15.3527 141.523 15.2527C141.836 15.1956 142.421 15.2813 142.492 15.4099Z" fill="#3B82F6"/>
<path d="M151.132 21.8526V28.7097H151.774H152.415V21.8526V14.9956H151.774H151.132V21.8526ZM152.13 15.4956C152.358 15.7813 152.145 16.0527 151.76 15.967C151.375 15.8956 151.303 15.2813 151.674 15.2813C151.831 15.2813 152.03 15.3813 152.13 15.4956Z" fill="#3B82F6"/>
<path d="M152.13 15.4956C152.358 15.7813 152.145 16.0527 151.76 15.967C151.375 15.8956 151.303 15.2813 151.674 15.2813C151.831 15.2813 152.03 15.3813 152.13 15.4956Z" fill="#3B82F6"/>
<path d="M33.7339 18.667C33.7053 18.8098 33.5628 19.367 33.4202 19.9241C32.9782 21.7812 32.3509 22.8383 30.5829 24.724C29.1999 26.1954 28.8577 27.7097 29.5706 29.2097C30.2692 30.6954 31.3528 31.4097 34.6464 32.5097C35.6159 32.8382 36.4428 33.1668 36.4571 33.2382C36.4856 33.3096 36.3145 33.4811 36.0721 33.6096C35.844 33.7525 35.345 34.2239 34.9743 34.6668C32.9925 36.9953 32.3794 37.5096 31.0819 37.8667C30.7255 37.9667 30.2835 38.181 30.0981 38.3382C29.7845 38.6239 29.7702 38.7096 29.8558 39.781C30.0839 42.8524 30.3548 43.8095 31.139 44.2952C31.695 44.6381 31.8661 44.6381 32.2225 44.2809C32.4507 44.0524 32.5077 43.8095 32.5077 43.0667C32.5077 41.481 33.1493 40.1238 34.2614 39.3239C34.5893 39.081 36.1434 38.1382 37.7118 37.2239C41.4331 35.0382 41.7752 34.7096 41.7752 33.2811C41.7752 31.5382 40.5491 30.2811 36.7423 28.1097C34.6891 26.9383 34.461 26.7526 34.2186 25.9526C33.9477 25.124 33.905 25.0526 33.7766 25.3669C33.577 25.8669 33.6483 26.6383 33.9192 27.0812C34.2614 27.6526 34.8317 28.0811 36.286 28.8526C38.4532 30.024 40.2639 31.4382 40.7202 32.3097C40.8342 32.5239 40.9198 32.9525 40.9198 33.2668C40.9198 34.2811 40.6489 34.4811 35.5874 37.4382C33.5628 38.6239 32.6645 39.4524 32.1655 40.5667C31.695 41.6238 31.4811 43.5095 31.8091 43.7238C31.9659 43.8095 31.9659 43.8809 31.8233 44.0238C31.6807 44.1666 31.5952 44.1381 31.3956 43.9381C31.2388 43.7667 31.2102 43.6524 31.31 43.6095C31.4384 43.5667 31.4241 43.4238 31.2673 43.1095C31.139 42.8667 30.9821 42.2095 30.9251 41.6524C30.8681 41.0953 30.7683 40.2667 30.7112 39.8238C30.6399 39.181 30.6542 38.981 30.811 38.9381C32.9497 38.181 33.6055 37.7239 35.0456 35.9096C36.229 34.4382 36.7565 34.0525 38.0825 33.7382L39.109 33.4811L38.6528 33.0954C38.3819 32.8811 37.669 32.5525 36.9561 32.3382C32.4222 30.9811 31.0106 30.2525 30.3833 28.9526C29.7417 27.624 30.1267 26.3812 31.695 24.7812C32.8214 23.6241 33.6341 22.3241 34.0618 20.9669C34.5038 19.6384 34.518 18.8813 34.1188 18.6098C33.8479 18.4241 33.8052 18.4241 33.7339 18.667ZM29.8558 27.5811C29.9413 28.0526 29.87 28.2811 29.6276 28.2811C29.5421 28.2811 29.5421 28.1954 29.6561 28.0669C29.813 27.8811 29.7987 27.8669 29.5991 27.9383C29.3567 28.024 29.2997 27.7811 29.4565 27.3669C29.5991 27.0097 29.7559 27.0954 29.8558 27.5811ZM38.7669 29.5525C39.3229 29.924 39.3514 29.9668 39.0092 29.9525C38.8096 29.9383 38.61 29.824 38.5672 29.7097C38.496 29.524 38.4674 29.524 38.3391 29.7097C38.2108 29.8954 38.1965 29.8811 38.2678 29.6811C38.3106 29.5383 38.2393 29.3668 38.0967 29.2954C37.9684 29.2097 37.9256 29.1383 37.9969 29.1383C38.0825 29.1383 38.4247 29.324 38.7669 29.5525ZM30.754 42.0952C30.7112 42.2381 30.6827 42.1238 30.6827 41.8524C30.6827 41.581 30.7112 41.4667 30.754 41.5953C30.7825 41.7381 30.7825 41.9667 30.754 42.0952Z" fill="#3B82F6"/>
<path d="M29.8558 27.5811C29.9413 28.0526 29.87 28.2811 29.6276 28.2811C29.5421 28.2811 29.5421 28.1954 29.6561 28.0669C29.813 27.8811 29.7987 27.8669 29.5991 27.9383C29.3567 28.024 29.2997 27.7811 29.4565 27.3669C29.5991 27.0097 29.7559 27.0954 29.8558 27.5811Z" fill="#3B82F6"/>
<path d="M38.7669 29.5525C39.3229 29.924 39.3514 29.9668 39.0092 29.9525C38.8096 29.9383 38.61 29.824 38.5672 29.7097C38.496 29.524 38.4674 29.524 38.3391 29.7097C38.2108 29.8954 38.1965 29.8811 38.2678 29.6811C38.3106 29.5383 38.2393 29.3668 38.0967 29.2954C37.9684 29.2097 37.9256 29.1383 37.9969 29.1383C38.0825 29.1383 38.4247 29.324 38.7669 29.5525Z" fill="#3B82F6"/>
<path d="M30.754 42.0952C30.7112 42.2381 30.6827 42.1238 30.6827 41.8524C30.6827 41.581 30.7112 41.4667 30.754 41.5953C30.7825 41.7381 30.7825 41.9667 30.754 42.0952Z" fill="#3B82F6"/>
<path d="M59.0984 32.8954C58.4996 33.1811 58.2857 33.4811 58.2857 34.0811C58.2857 34.7525 58.4853 34.9382 59.6687 35.3239C60.3531 35.5382 60.681 35.7239 60.7095 35.8953C60.8379 36.5382 59.9396 36.7667 58.9558 36.3667C58.4996 36.1667 58.4426 36.1667 58.3142 36.4382C58.1004 36.8382 58.2144 36.9524 59.0842 37.1524C60.5242 37.4667 61.5935 36.9524 61.5935 35.9382C61.5935 35.281 61.1943 34.9096 60.2248 34.6953C59.797 34.5953 59.355 34.4096 59.2267 34.2525C58.9986 34.0096 58.9986 33.9811 59.241 33.7096C59.5261 33.3954 60.2961 33.3239 60.7666 33.5811C61.0232 33.7096 61.1088 33.6953 61.2656 33.4811C61.4224 33.2668 61.4224 33.1954 61.2656 33.0239C60.9804 32.7525 59.6117 32.6668 59.0984 32.8954ZM58.8418 33.4811C58.799 33.5953 58.8275 33.7096 58.9131 33.7382C58.9986 33.7668 58.9558 33.8668 58.8275 33.9811C58.6279 34.1382 58.5994 34.1382 58.5994 33.9525C58.5994 33.6811 58.742 33.2811 58.8418 33.2811C58.8845 33.2811 58.8845 33.3668 58.8418 33.4811Z" fill="#3B82F6"/>
<path d="M58.8418 33.4811C58.799 33.5953 58.8275 33.7096 58.9131 33.7382C58.9986 33.7668 58.9558 33.8668 58.8275 33.9811C58.6279 34.1382 58.5994 34.1382 58.5994 33.9525C58.5994 33.6811 58.742 33.2811 58.8418 33.2811C58.8845 33.2811 58.8845 33.3668 58.8418 33.4811Z" fill="#3B82F6"/>
<path d="M63.7892 32.8668C63.2046 33.0382 62.4918 33.8525 62.3634 34.4953C61.9785 36.5525 64.331 38.0953 65.9421 36.8239C66.2843 36.5525 66.2986 36.5096 66.0847 36.281C65.8708 36.0525 65.8281 36.0525 65.3005 36.3096C64.8015 36.5667 64.6732 36.5667 64.2027 36.4096C63.9033 36.3096 63.6181 36.2382 63.5753 36.2382C63.5326 36.2525 63.4898 36.1953 63.4898 36.0953C63.4755 35.9953 63.39 35.7239 63.2902 35.481C63.0763 34.9382 63.2046 34.3668 63.6609 33.9239C64.1599 33.4239 64.6304 33.3525 65.3005 33.6811C65.8281 33.9382 65.8708 33.9382 66.0847 33.7096C66.2843 33.4954 66.2701 33.4525 66.0562 33.2382C65.5001 32.7382 64.6732 32.6096 63.7892 32.8668Z" fill="#3B82F6"/>
<path d="M111.153 32.8525C110.612 33.0239 110.084 33.5239 109.842 34.0953C109.1 35.8239 110.654 37.6096 112.522 37.2096C113.606 36.9667 114.205 36.181 114.205 34.9953C114.205 34.1382 113.948 33.5668 113.363 33.1382C112.879 32.7954 111.767 32.6525 111.153 32.8525ZM112.536 33.5811C113.078 33.8525 113.349 34.3239 113.349 34.9668C113.349 35.7525 113.021 36.2382 112.365 36.4382C111.695 36.6382 111.039 36.3525 110.711 35.7096C110.441 35.181 110.441 34.8096 110.711 34.2811C111.082 33.5668 111.895 33.2525 112.536 33.5811ZM110.312 35.0096L110.341 35.3525L110.227 34.9953C110.113 34.6382 110.084 34.6525 109.885 35.281C109.842 35.3953 109.799 35.2953 109.799 35.0382C109.785 34.6953 109.842 34.5953 110.041 34.6239C110.184 34.6525 110.298 34.8096 110.312 35.0096ZM110.669 36.0667C110.811 36.2382 111.153 36.4667 111.424 36.5667C111.695 36.681 111.923 36.8096 111.923 36.8667C111.923 37.0382 111.196 36.9096 111.068 36.7239C111.011 36.6239 110.925 36.5525 110.868 36.5525C110.583 36.5953 110.498 36.5382 110.498 36.3525C110.498 36.2382 110.355 36.0096 110.184 35.8382C109.999 35.6668 109.942 35.5668 110.041 35.6239C110.141 35.681 110.212 35.6525 110.227 35.5382C110.227 35.3953 110.255 35.3953 110.312 35.5525C110.355 35.6668 110.512 35.8953 110.669 36.0667Z" fill="#3B82F6"/>
<path d="M110.669 36.0667C110.811 36.2382 111.153 36.4667 111.424 36.5667C111.695 36.681 111.923 36.8096 111.923 36.8667C111.923 37.0382 111.196 36.9096 111.068 36.7239C111.011 36.6239 110.925 36.5525 110.868 36.5525C110.583 36.5953 110.498 36.5382 110.498 36.3525C110.498 36.2382 110.355 36.0096 110.184 35.8382C109.999 35.6668 109.942 35.5668 110.041 35.6239C110.141 35.681 110.212 35.6525 110.227 35.5382C110.227 35.3953 110.255 35.3953 110.312 35.5525C110.355 35.6668 110.512 35.8953 110.669 36.0667Z" fill="#3B82F6"/>
<path d="M110.312 35.0096L110.341 35.3525L110.227 34.9953C110.113 34.6382 110.084 34.6525 109.885 35.281C109.842 35.3953 109.799 35.2953 109.799 35.0382C109.785 34.6953 109.842 34.5953 110.041 34.6239C110.184 34.6525 110.298 34.8096 110.312 35.0096Z" fill="#3B82F6"/>
<path d="M133.709 32.8382C132.697 33.1668 132.169 33.8954 132.169 34.9811C132.169 36.2096 132.754 36.9382 133.98 37.1953C134.508 37.3096 135.477 37.1667 135.363 36.981C135.32 36.9096 135.377 36.8953 135.477 36.9239C135.591 36.9667 135.819 36.8667 135.99 36.7096C137.06 35.7096 136.946 34.0096 135.72 33.1096C135.32 32.8097 134.251 32.6668 133.709 32.8382ZM134.95 33.6239C135.463 33.8382 135.876 34.4668 135.876 35.0239C135.876 35.5239 135.392 36.2096 134.893 36.4239C134.037 36.781 133.025 36.0096 133.025 34.9953C133.025 34.4096 133.438 33.7668 133.937 33.5668C134.351 33.3954 134.394 33.3954 134.95 33.6239ZM133.495 36.3096C134.066 36.8525 134.622 36.881 135.377 36.4239C135.805 36.1525 135.819 36.1525 135.834 36.4239C135.848 36.6382 135.762 36.7096 135.506 36.7096C135.32 36.7096 135.164 36.7525 135.164 36.8096C135.164 36.9525 133.994 36.9382 133.766 36.7953C133.666 36.7382 133.595 36.7667 133.595 36.8382C133.595 36.9239 133.438 36.8525 133.239 36.681C133.053 36.5239 132.925 36.3239 132.968 36.2525C133.011 36.181 132.968 36.1525 132.868 36.1668C132.783 36.1953 132.697 36.0668 132.668 35.8953C132.64 35.5382 132.683 35.5525 133.495 36.3096Z" fill="#3B82F6"/>
<path d="M133.495 36.3096C134.066 36.8525 134.622 36.881 135.377 36.4239C135.805 36.1525 135.819 36.1525 135.834 36.4239C135.848 36.6382 135.762 36.7096 135.506 36.7096C135.32 36.7096 135.164 36.7525 135.164 36.8096C135.164 36.9525 133.994 36.9382 133.766 36.7953C133.666 36.7382 133.595 36.7667 133.595 36.8382C133.595 36.9239 133.438 36.8525 133.239 36.681C133.053 36.5239 132.925 36.3239 132.968 36.2525C133.011 36.181 132.968 36.1525 132.868 36.1668C132.783 36.1953 132.697 36.0668 132.668 35.8953C132.64 35.5382 132.683 35.5525 133.495 36.3096Z" fill="#3B82F6"/>
<path d="M145.03 32.8096C144.488 32.9096 143.633 33.8811 143.533 34.4811C143.433 35.1096 143.547 35.881 143.732 35.7668C143.804 35.7239 143.818 35.7953 143.775 35.9239C143.633 36.2953 144.616 37.1096 145.329 37.2096C147.112 37.481 148.438 36.081 147.996 34.4239C147.653 33.1382 146.527 32.5239 145.03 32.8096ZM146.67 33.7953C147.169 34.1096 147.354 34.9668 147.083 35.6096C146.484 37.0667 144.431 36.6239 144.431 35.0382C144.431 34.2382 144.616 33.8811 145.187 33.6239C145.686 33.4096 146.171 33.4668 146.67 33.7953ZM145.672 36.7096C145.914 36.7096 146.156 36.7667 146.199 36.8239C146.256 36.9239 145.287 36.8525 144.93 36.7382C144.887 36.7239 144.788 36.7096 144.702 36.7096C144.631 36.7096 144.588 36.6525 144.631 36.581C144.673 36.5096 144.602 36.4667 144.474 36.481C144.317 36.481 144.217 36.381 144.203 36.2096C144.189 36.0525 144.132 35.8096 144.075 35.6668C144.018 35.5239 144.246 35.6953 144.588 36.0525C145.073 36.5525 145.315 36.7096 145.672 36.7096Z" fill="#3B82F6"/>
<path d="M145.672 36.7096C145.914 36.7096 146.156 36.7667 146.199 36.8239C146.256 36.9239 145.287 36.8525 144.93 36.7382C144.887 36.7239 144.788 36.7096 144.702 36.7096C144.631 36.7096 144.588 36.6525 144.631 36.581C144.673 36.5096 144.602 36.4667 144.474 36.481C144.317 36.481 144.217 36.381 144.203 36.2096C144.189 36.0525 144.132 35.8096 144.075 35.6668C144.018 35.5239 144.246 35.6953 144.588 36.0525C145.073 36.5525 145.315 36.7096 145.672 36.7096Z" fill="#3B82F6"/>
<path d="M70.3193 35.8668C70.3763 36.2096 70.3478 36.281 70.1624 36.1953C70.0341 36.1382 69.8203 36.1096 69.6919 36.1096C69.4923 36.1239 69.4781 36.081 69.6206 35.9239C69.7062 35.8239 69.8345 35.7668 69.8773 35.7953C69.9201 35.8239 69.9343 35.6668 69.8915 35.4525C69.8203 35.1239 69.8488 35.0953 70.0341 35.2525C70.1624 35.3525 70.2908 35.6239 70.3193 35.8668Z" fill="#3B82F6"/>
<path d="M70.8896 36.881C70.7613 37.0096 70.7185 37.0096 70.7185 36.8382C70.7185 36.6667 70.69 36.6667 70.5759 36.8525C70.4619 37.0239 70.4333 37.0096 70.4333 36.7667C70.4333 36.3525 70.5902 36.2382 70.8468 36.4953C71.0179 36.6667 71.0322 36.7382 70.8896 36.881Z" fill="#3B82F6"/>
<path d="M67.4962 36.581C67.539 36.6239 67.4392 36.7239 67.2966 36.8239C67.0542 36.9667 67.0115 36.9667 67.0115 36.7239C67.0115 36.481 67.3109 36.3953 67.4962 36.581Z" fill="#3B82F6"/>
<path fill-rule="evenodd" clip-rule="evenodd" d="M68.2804 33.2382C68.1949 33.4668 67.8099 34.3811 67.4249 35.3096C67.04 36.2239 66.7263 37.0096 66.7263 37.0525C66.7263 37.0953 66.9117 37.1382 67.1398 37.1382C67.4677 37.1382 67.5818 37.0525 67.7101 36.7096C67.8527 36.281 67.8527 36.281 68.9933 36.281C70.1197 36.281 70.1197 36.281 70.2765 36.7096C70.3906 37.0525 70.5046 37.1382 70.8468 37.1382C71.0892 37.1382 71.2888 37.1239 71.2888 37.0953C71.2888 37.0096 69.6492 33.2096 69.5351 33.0239C69.4638 32.9382 69.1929 32.8525 68.922 32.8525C68.5228 32.8525 68.4087 32.9239 68.2804 33.2382ZM69.7204 35.4668C69.7204 35.4096 69.5779 34.9953 69.4068 34.5382C69.2214 34.0811 69.0361 33.7096 68.9933 33.7096C68.8792 33.7096 68.2947 35.1096 68.2947 35.3668C68.2947 35.5096 68.4943 35.5668 69.0076 35.5668C69.4068 35.5668 69.7204 35.5239 69.7204 35.4668ZM70.1624 36.1953C70.3478 36.281 70.3763 36.2096 70.3193 35.8668C70.2908 35.6239 70.1624 35.3525 70.0341 35.2525C69.8488 35.0953 69.8203 35.1239 69.8915 35.4525C69.9343 35.6668 69.9201 35.8239 69.8773 35.7953C69.8345 35.7668 69.7062 35.8239 69.6206 35.9239C69.4781 36.081 69.4923 36.1239 69.6919 36.1096C69.8203 36.1096 70.0341 36.1382 70.1624 36.1953ZM70.7185 36.8382C70.7185 37.0096 70.7613 37.0096 70.8896 36.881C71.0322 36.7382 71.0179 36.6667 70.8468 36.4953C70.5902 36.2382 70.4333 36.3525 70.4333 36.7667C70.4333 37.0096 70.4619 37.0239 70.5759 36.8525C70.69 36.6667 70.7185 36.6667 70.7185 36.8382ZM67.2966 36.8239C67.4392 36.7239 67.539 36.6239 67.4962 36.581C67.3109 36.3953 67.0115 36.481 67.0115 36.7239C67.0115 36.9667 67.0542 36.9667 67.2966 36.8239Z" fill="#3B82F6"/>
<path d="M72.0017 34.9953V37.1382H72.4294H72.8571V35.8525C72.8571 35.1382 72.9142 34.5668 72.9712 34.5668C73.0425 34.5668 73.5558 35.1382 74.1118 35.8525C74.8817 36.8096 75.2239 37.1382 75.4806 37.1382C75.8085 37.1382 75.8085 37.1096 75.894 35.1096C75.9368 33.9954 75.9511 33.0382 75.9083 32.9668C75.8655 32.9097 75.6802 32.8525 75.4806 32.8525C75.1384 32.8525 75.1384 32.8811 75.1384 34.0525C75.1384 34.7239 75.0814 35.2953 75.0101 35.3525C74.9245 35.3953 74.6964 35.1953 74.4683 34.9096C72.9997 32.9954 72.8429 32.8525 72.4152 32.8525H72.0017V34.9953Z" fill="#3B82F6"/>
<path d="M83.1227 34.9953V37.1382H83.5505H83.9782V35.8525C83.9782 35.1382 84.021 34.5668 84.0923 34.5668C84.1493 34.5811 84.6483 35.1525 85.1901 35.8525C86.0171 36.9096 86.2594 37.1382 86.5874 37.1382H86.9723V34.9953V32.8525H86.5446H86.1169V34.1382C86.1169 34.8382 86.0741 35.4239 86.0171 35.4239C85.9458 35.4239 85.461 34.8525 84.905 34.1382C84.0923 33.0954 83.8356 32.8668 83.522 32.8525H83.1227V34.9953ZM83.636 36.8239C83.5077 36.9382 83.2653 36.681 83.2653 36.4525C83.2796 36.2382 83.2938 36.2382 83.4792 36.481C83.5932 36.6382 83.6645 36.781 83.636 36.8239Z" fill="#3B82F6"/>
<path d="M83.636 36.8239C83.5077 36.9382 83.2653 36.681 83.2653 36.4525C83.2796 36.2382 83.2938 36.2382 83.4792 36.481C83.5932 36.6382 83.6645 36.781 83.636 36.8239Z" fill="#3B82F6"/>
<path d="M88.1129 34.3096C88.1129 36.0382 88.3411 36.6382 89.111 37.0382C89.4817 37.2239 89.7954 37.281 90.3086 37.2239C91.5918 37.081 91.9625 36.4239 91.9625 34.2811V32.8525H91.5348H91.1071V34.2953C91.1071 35.081 91.0358 35.8525 90.9502 36.0096C90.5938 36.6953 89.4532 36.6382 89.1252 35.9096C89.0397 35.7096 88.9684 34.9525 88.9684 34.2096V32.8525H88.5407H88.1129V34.3096Z" fill="#3B82F6"/>
<path d="M92.6754 33.2096C92.6754 33.5382 92.7325 33.5668 93.317 33.5668C94.0442 33.5668 94.0014 33.4811 93.9586 35.0953C93.9301 36.7096 94.0299 37.1382 94.4719 37.1382C94.8569 37.1382 94.8426 37.2239 94.8141 35.1953C94.7998 33.6954 94.9424 33.4239 95.7551 33.4239C96.1401 33.4239 96.2399 33.3668 96.2399 33.1382C96.2399 32.8668 96.1401 32.8525 94.4577 32.8525H92.6754V33.2096ZM94.4862 36.3096C94.4577 36.4953 94.4291 36.381 94.4291 36.0668C94.4149 35.7525 94.4434 35.6096 94.4862 35.7382C94.5147 35.881 94.5147 36.1382 94.4862 36.3096Z" fill="#3B82F6"/>
<path d="M94.4862 36.3096C94.4577 36.4953 94.4291 36.381 94.4291 36.0668C94.4149 35.7525 94.4434 35.6096 94.4862 35.7382C94.5147 35.881 94.5147 36.1382 94.4862 36.3096Z" fill="#3B82F6"/>
<path d="M97.0953 35.0096V37.1525L97.4946 37.1096C97.8367 37.0667 97.8795 37.0096 97.9223 36.4525C97.9651 35.8668 97.9793 35.8525 98.4498 35.8525C98.7207 35.8525 98.9774 35.9239 99.0201 35.9953C99.0772 36.081 99.177 36.0953 99.2625 36.0525C99.3623 35.9953 99.3766 36.0239 99.3195 36.1096C99.2625 36.2096 99.3338 36.4667 99.4764 36.7096C99.6617 37.0239 99.8328 37.1382 100.118 37.1382C100.603 37.1382 100.603 37.081 100.189 36.381L99.8471 35.8239L100.261 35.4239C100.546 35.1382 100.66 34.8811 100.66 34.5096C100.66 33.2382 100.118 32.8525 98.3072 32.8525H97.0953V35.0096ZM99.5762 33.7954C99.8328 34.0525 99.8613 34.4668 99.6617 34.8668C99.5334 35.081 99.3481 35.1382 98.735 35.1382H97.9508V34.3525V33.5668H98.6494C99.1057 33.5668 99.4336 33.6525 99.5762 33.7954ZM97.7369 36.4096C97.6371 36.7239 97.3805 36.8239 97.3805 36.5667C97.3805 36.3953 97.7084 35.9953 97.7797 36.0668C97.8082 36.0953 97.794 36.2525 97.7369 36.4096Z" fill="#3B82F6"/>
<path d="M97.7369 36.4096C97.6371 36.7239 97.3805 36.8239 97.3805 36.5667C97.3805 36.3953 97.7084 35.9953 97.7797 36.0668C97.8082 36.0953 97.794 36.2525 97.7369 36.4096Z" fill="#3B82F6"/>
<path d="M101.658 34.9953V37.1382H102.086H102.513V34.9953V32.8525H102.086H101.658V34.9953ZM102.371 36.3667C102.371 36.6382 102.342 36.8525 102.314 36.8525C102.285 36.8525 102.157 36.8953 102.029 36.9382C101.843 37.0096 101.8 36.9239 101.8 36.5382C101.8 36.0382 102.029 35.6668 102.257 35.7953C102.314 35.8382 102.371 36.0953 102.371 36.3667Z" fill="#3B82F6"/>
<path d="M102.371 36.3667C102.371 36.6382 102.342 36.8525 102.314 36.8525C102.285 36.8525 102.157 36.8953 102.029 36.9382C101.843 37.0096 101.8 36.9239 101.8 36.5382C101.8 36.0382 102.029 35.6668 102.257 35.7953C102.314 35.8382 102.371 36.0953 102.371 36.3667Z" fill="#3B82F6"/>
<path d="M103.397 33.1668C103.44 33.4525 103.54 33.4954 104.124 33.5382L104.795 33.5811V35.3668V37.1382H105.222H105.65V35.3668C105.65 33.4239 105.65 33.4239 106.591 33.4239C106.976 33.4239 107.076 33.3668 107.076 33.1382C107.076 32.8668 106.976 32.8525 105.208 32.8525C103.354 32.8525 103.354 32.8525 103.397 33.1668ZM104.224 33.1382C104.224 33.2096 104.067 33.2811 103.868 33.2811C103.668 33.2811 103.511 33.2096 103.511 33.1382C103.511 33.0525 103.668 32.9954 103.868 32.9954C104.067 32.9954 104.224 33.0525 104.224 33.1382ZM105.422 35.481C105.336 35.6953 105.08 35.8096 105.08 35.6382C105.08 35.5239 105.422 35.1525 105.479 35.2096C105.493 35.2239 105.479 35.3525 105.422 35.481ZM105.222 36.5667C105.094 36.6525 105.094 36.6953 105.208 36.7525C105.308 36.7953 105.308 36.8239 105.194 36.7953C105.094 36.781 104.994 36.6525 104.966 36.5239C104.923 36.3525 104.98 36.3096 105.151 36.3667C105.322 36.4382 105.336 36.4953 105.222 36.5667Z" fill="#3B82F6"/>
<path d="M105.422 35.481C105.336 35.6953 105.08 35.8096 105.08 35.6382C105.08 35.5239 105.422 35.1525 105.479 35.2096C105.493 35.2239 105.479 35.3525 105.422 35.481Z" fill="#3B82F6"/>
<path d="M105.222 36.5667C105.094 36.6525 105.094 36.6953 105.208 36.7525C105.308 36.7953 105.308 36.8239 105.194 36.7953C105.094 36.781 104.994 36.6525 104.966 36.5239C104.923 36.3525 104.98 36.3096 105.151 36.3667C105.322 36.4382 105.336 36.4953 105.222 36.5667Z" fill="#3B82F6"/>
<path d="M104.224 33.1382C104.224 33.2096 104.067 33.2811 103.868 33.2811C103.668 33.2811 103.511 33.2096 103.511 33.1382C103.511 33.0525 103.668 32.9954 103.868 32.9954C104.067 32.9954 104.224 33.0525 104.224 33.1382Z" fill="#3B82F6"/>
<path d="M107.789 34.9953V37.1382H108.216H108.644V34.9953V32.8525H108.216H107.789V34.9953ZM108.487 34.8096C108.473 35.7953 108.445 36.6953 108.402 36.8096C108.202 37.3239 108.117 36.8239 108.117 34.9953C108.102 33.3954 108.145 32.9954 108.302 32.9954C108.459 32.9954 108.502 33.3668 108.487 34.8096Z" fill="#3B82F6"/>
<path d="M108.487 34.8096C108.473 35.7953 108.445 36.6953 108.402 36.8096C108.202 37.3239 108.117 36.8239 108.117 34.9953C108.102 33.3954 108.145 32.9954 108.302 32.9954C108.459 32.9954 108.502 33.3668 108.487 34.8096Z" fill="#3B82F6"/>
<path d="M115.203 34.9953V37.1382H115.63H116.044L116.087 35.7525L116.129 34.3668L117.242 35.7525C118.097 36.8239 118.439 37.1382 118.71 37.1382H119.052V34.9953V32.8525H118.625H118.197V34.1382C118.197 34.8382 118.154 35.4239 118.083 35.4239C118.026 35.4239 117.897 35.2953 117.798 35.1239C117.698 34.9668 117.256 34.3811 116.8 33.8382C116.158 33.0525 115.916 32.8525 115.602 32.8525H115.203V34.9953ZM118.824 33.3954C118.81 33.4954 118.796 33.7382 118.781 33.9525L118.739 34.3525L118.625 33.9954C118.453 33.4382 118.468 33.1096 118.667 33.1668C118.753 33.2096 118.838 33.3096 118.824 33.3954Z" fill="#3B82F6"/>
<path d="M118.824 33.3954C118.81 33.4954 118.796 33.7382 118.781 33.9525L118.739 34.3525L118.625 33.9954C118.453 33.4382 118.468 33.1096 118.667 33.1668C118.753 33.2096 118.838 33.3096 118.824 33.3954Z" fill="#3B82F6"/>
<path d="M126.324 35.0096V37.1525L126.723 37.1096C127.108 37.0667 127.108 37.0667 127.136 35.881C127.136 35.2239 127.179 34.6668 127.208 34.6239C127.25 34.5953 127.55 35.0525 127.906 35.6382C128.277 36.281 128.619 36.7096 128.762 36.7096C128.904 36.7096 129.204 36.3239 129.517 35.7096C129.803 35.1668 130.102 34.6811 130.173 34.6382C130.344 34.5382 130.344 34.5811 130.373 35.9953C130.387 37.0525 130.387 37.0667 130.786 37.1096L131.171 37.1525V35.0096V32.8525H130.744C130.458 32.8525 130.273 32.9382 130.202 33.0954C130.031 33.5239 128.819 35.5668 128.748 35.5668C128.705 35.5668 128.32 34.9525 127.892 34.2096C127.208 33.0239 127.065 32.8525 126.723 32.8525H126.324V35.0096ZM126.851 36.281C126.78 37.0525 126.609 37.181 126.609 36.4667C126.609 35.9668 126.694 35.7096 126.851 35.7096C126.88 35.7096 126.88 35.9668 126.851 36.281ZM128.833 36.0096C128.876 36.0953 128.847 36.2382 128.748 36.3239C128.619 36.4525 128.591 36.4382 128.633 36.281C128.662 36.1667 128.591 36.081 128.491 36.1096C128.377 36.1239 128.334 36.081 128.391 35.9953C128.505 35.8096 128.705 35.8096 128.833 36.0096Z" fill="#3B82F6"/>
<path d="M126.851 36.281C126.78 37.0525 126.609 37.181 126.609 36.4667C126.609 35.9668 126.694 35.7096 126.851 35.7096C126.88 35.7096 126.88 35.9668 126.851 36.281Z" fill="#3B82F6"/>
<path d="M128.833 36.0096C128.876 36.0953 128.847 36.2382 128.748 36.3239C128.619 36.4525 128.591 36.4382 128.633 36.281C128.662 36.1667 128.591 36.081 128.491 36.1096C128.377 36.1239 128.334 36.081 128.391 35.9953C128.505 35.8096 128.705 35.8096 128.833 36.0096Z" fill="#3B82F6"/>
<path d="M137.259 32.9525C137.003 33.1954 137.188 33.4239 137.644 33.4239C138.585 33.4239 138.585 33.4239 138.585 35.3668V37.1382H139.013H139.441V35.3668C139.441 33.4239 139.441 33.4239 140.382 33.4239C140.767 33.4239 140.867 33.3668 140.867 33.1382C140.867 32.8668 140.767 32.8525 139.113 32.8525C138.143 32.8525 137.302 32.8954 137.259 32.9525ZM138.086 33.1382C138.143 33.2239 138.015 33.2811 137.815 33.2811C137.616 33.2811 137.445 33.2096 137.445 33.1382C137.445 33.0525 137.573 32.9954 137.716 32.9954C137.873 32.9954 138.044 33.0525 138.086 33.1382Z" fill="#3B82F6"/>
<path d="M138.086 33.1382C138.143 33.2239 138.015 33.2811 137.815 33.2811C137.616 33.2811 137.445 33.2096 137.445 33.1382C137.445 33.0525 137.573 32.9954 137.716 32.9954C137.873 32.9954 138.044 33.0525 138.086 33.1382Z" fill="#3B82F6"/>
<path d="M141.58 34.9953V37.1382H142.007H142.435V34.9953V32.8525H142.007H141.58V34.9953Z" fill="#3B82F6"/>
<path d="M148.994 34.9953V37.1382H149.421H149.849V35.8382C149.849 34.8668 149.892 34.5525 150.02 34.5953C150.12 34.6382 150.619 35.2096 151.147 35.8668C151.931 36.881 152.145 37.0667 152.501 37.0667H152.914L152.957 34.9525L153 32.8525H152.558H152.13V34.1382C152.13 34.8811 152.073 35.4239 151.988 35.4239C151.916 35.4239 151.403 34.8382 150.833 34.1382C149.977 33.0382 149.764 32.8525 149.407 32.8525H148.994V34.9953ZM149.764 33.2096C149.806 33.3239 149.778 33.4239 149.721 33.4239C149.649 33.4239 149.493 33.4668 149.364 33.5096C149.207 33.5668 149.136 33.5239 149.136 33.3525C149.136 33.2239 149.207 33.1668 149.279 33.2096C149.364 33.2525 149.421 33.2239 149.421 33.1525C149.421 32.9239 149.664 32.9668 149.764 33.2096ZM152.701 33.5382C152.701 33.7525 152.644 34.0096 152.572 34.1239C152.472 34.2811 152.415 34.1953 152.344 33.8096C152.244 33.2668 152.344 32.9382 152.572 33.0668C152.644 33.1239 152.701 33.3239 152.701 33.5382ZM149.664 36.0239C149.649 36.7096 149.592 36.9239 149.421 36.9239C149.108 36.9239 149.108 35.8096 149.407 35.681C149.607 35.5953 149.607 35.581 149.393 35.581C149.093 35.5668 149.207 35.1382 149.507 35.1382C149.649 35.1382 149.692 35.3525 149.664 36.0239Z" fill="#3B82F6"/>
<path d="M149.664 36.0239C149.649 36.7096 149.592 36.9239 149.421 36.9239C149.108 36.9239 149.108 35.8096 149.407 35.681C149.607 35.5953 149.607 35.581 149.393 35.581C149.093 35.5668 149.207 35.1382 149.507 35.1382C149.649 35.1382 149.692 35.3525 149.664 36.0239Z" fill="#3B82F6"/>
<path d="M149.764 33.2096C149.806 33.3239 149.778 33.4239 149.721 33.4239C149.649 33.4239 149.493 33.4668 149.364 33.5096C149.207 33.5668 149.136 33.5239 149.136 33.3525C149.136 33.2239 149.207 33.1668 149.279 33.2096C149.364 33.2525 149.421 33.2239 149.421 33.1525C149.421 32.9239 149.664 32.9668 149.764 33.2096Z" fill="#3B82F6"/>
<path d="M152.701 33.5382C152.701 33.7525 152.644 34.0096 152.572 34.1239C152.472 34.2811 152.415 34.1953 152.344 33.8096C152.244 33.2668 152.344 32.9382 152.572 33.0668C152.644 33.1239 152.701 33.3239 152.701 33.5382Z" fill="#3B82F6"/>
<path d="M78.988 34.8525C78.8311 35.0096 78.7028 35.2525 78.7028 35.3953C78.7028 35.7239 79.1306 36.1382 79.4585 36.1382C79.7579 36.1382 80.2712 35.6382 80.2712 35.3525C80.2712 35.081 79.7579 34.5668 79.487 34.5668C79.3729 34.5668 79.1448 34.6953 78.988 34.8525ZM79.5725 35.2668C79.6866 35.0953 79.7151 35.0953 79.8292 35.281C79.929 35.4096 79.9147 35.5525 79.8007 35.681C79.7009 35.8096 79.6153 35.8239 79.5868 35.7239C79.5583 35.6382 79.4442 35.5668 79.3444 35.5668C79.045 35.5668 78.9452 35.2953 79.1591 35.0382C79.3302 34.8239 79.3444 34.8382 79.3872 35.1382C79.43 35.3953 79.4727 35.4239 79.5725 35.2668Z" fill="#3B82F6"/>
<path d="M79.5725 35.2668C79.6866 35.0953 79.7151 35.0953 79.8292 35.281C79.929 35.4096 79.9147 35.5525 79.8007 35.681C79.7009 35.8096 79.6153 35.8239 79.5868 35.7239C79.5583 35.6382 79.4442 35.5668 79.3444 35.5668C79.045 35.5668 78.9452 35.2953 79.1591 35.0382C79.3302 34.8239 79.3444 34.8382 79.3872 35.1382C79.43 35.3953 79.4727 35.4239 79.5725 35.2668Z" fill="#3B82F6"/>
<path d="M122.218 34.7953C121.633 35.1953 121.989 36.1382 122.731 36.1382C123.03 36.1382 123.472 35.6525 123.472 35.3239C123.472 35.081 122.959 34.5668 122.717 34.5668C122.617 34.5668 122.389 34.6668 122.218 34.7953ZM123.116 35.4525C123.173 35.4953 123.073 35.581 122.902 35.6382C122.56 35.7525 122.403 35.6668 122.531 35.4525C122.617 35.2953 122.973 35.3096 123.116 35.4525Z" fill="#3B82F6"/>
<path d="M123.116 35.4525C123.173 35.4953 123.073 35.581 122.902 35.6382C122.56 35.7525 122.403 35.6668 122.531 35.4525C122.617 35.2953 122.973 35.3096 123.116 35.4525Z" fill="#3B82F6"/>
<path d="M0.0712904 39.6096C0.0285171 39.7096 0.0142594 41.5238 0.0285171 43.6381L0.0712904 47.4952H4.13475H8.19821L8.24098 47.1523C8.2695 46.9666 8.21247 46.7523 8.09841 46.6952C7.9986 46.6238 6.35896 46.5666 4.46268 46.5666H0.998045V43.1667C0.998045 40.7096 0.955271 39.7238 0.826952 39.5953C0.598827 39.3667 0.156837 39.381 0.0712904 39.6096ZM0.513281 39.6953C0.45625 39.7667 0.484765 39.8524 0.556054 39.881C0.684374 39.9238 0.755663 40.7524 0.727147 41.8381C0.712889 42.1952 0.670116 42.2952 0.556054 42.181C0.342188 41.9667 0.228126 39.5667 0.441992 39.5667C0.513281 39.5667 0.556054 39.6238 0.513281 39.6953ZM0.613085 46.0952C0.570312 46.1952 0.613085 46.2809 0.712889 46.2809C0.812694 46.2809 0.855467 46.3809 0.798436 46.4952C0.741405 46.638 0.826952 46.7095 1.04082 46.738C1.21191 46.738 1.44003 46.7666 1.53984 46.7666C1.6539 46.7809 1.78222 46.8809 1.85351 47.0095C1.96757 47.1952 1.88203 47.238 1.2832 47.238C0.541796 47.238 0.313672 47.0095 0.370703 46.3095C0.441992 45.2952 0.441992 45.3238 0.556054 45.6381C0.627343 45.7952 0.641601 46.0095 0.613085 46.0952ZM7.98434 46.9809C7.98434 47.1238 7.88454 47.2952 7.75622 47.338C7.48532 47.438 6.94353 47.1809 7.05759 46.9809C7.11462 46.9095 6.87224 46.8523 6.50154 46.8523C6.14509 46.8523 5.84568 46.9095 5.84568 46.9952C5.84568 47.0666 5.93123 47.138 6.04529 47.138C6.15935 47.138 6.30193 47.2095 6.35896 47.3095C6.41599 47.4095 6.40173 47.4238 6.30193 47.3666C6.20213 47.3095 5.2326 47.2523 4.13475 47.238C2.35253 47.2238 2.13867 47.1952 2.13867 46.9809C2.13867 46.7523 2.3953 46.7238 5.06151 46.7095C7.85603 46.7095 7.98434 46.7095 7.98434 46.9809Z" fill="#3B82F6"/>
<path d="M7.98434 46.9809C7.98434 47.1238 7.88454 47.2952 7.75622 47.338C7.48532 47.438 6.94353 47.1809 7.05759 46.9809C7.11462 46.9095 6.87224 46.8523 6.50154 46.8523C6.14509 46.8523 5.84568 46.9095 5.84568 46.9952C5.84568 47.0666 5.93123 47.138 6.04529 47.138C6.15935 47.138 6.30193 47.2095 6.35896 47.3095C6.41599 47.4095 6.40173 47.4238 6.30193 47.3666C6.20213 47.3095 5.2326 47.2523 4.13475 47.238C2.35253 47.2238 2.13867 47.1952 2.13867 46.9809C2.13867 46.7523 2.3953 46.7238 5.06151 46.7095C7.85603 46.7095 7.98434 46.7095 7.98434 46.9809Z" fill="#3B82F6"/>
<path d="M0.613085 46.0952C0.570312 46.1952 0.613085 46.2809 0.712889 46.2809C0.812694 46.2809 0.855467 46.3809 0.798436 46.4952C0.741405 46.638 0.826952 46.7095 1.04082 46.738C1.21191 46.738 1.44003 46.7666 1.53984 46.7666C1.6539 46.7809 1.78222 46.8809 1.85351 47.0095C1.96757 47.1952 1.88203 47.238 1.2832 47.238C0.541796 47.238 0.313672 47.0095 0.370703 46.3095C0.441992 45.2952 0.441992 45.3238 0.556054 45.6381C0.627343 45.7952 0.641601 46.0095 0.613085 46.0952Z" fill="#3B82F6"/>
<path d="M0.513281 39.6953C0.45625 39.7667 0.484765 39.8524 0.556054 39.881C0.684374 39.9238 0.755663 40.7524 0.727147 41.8381C0.712889 42.1952 0.670116 42.2952 0.556054 42.181C0.342188 41.9667 0.228126 39.5667 0.441992 39.5667C0.513281 39.5667 0.556054 39.6238 0.513281 39.6953Z" fill="#3B82F6"/>
<path d="M48.8186 39.581C48.7615 39.6667 48.6902 41.281 48.6475 43.1524L48.5762 46.5666H45.1258C41.4616 46.5666 41.2477 46.6095 41.376 47.238C41.4188 47.4809 41.6897 47.4952 45.4823 47.4952H49.5457V43.4952C49.5457 39.5096 49.5457 39.4953 49.232 39.4524C49.0752 39.4239 48.8899 39.481 48.8186 39.581ZM42.6877 46.7952C42.8161 46.838 42.9159 46.9666 42.9159 47.0809C42.9159 47.2238 42.7305 47.2809 42.2743 47.2809C41.6612 47.2809 41.4473 47.0809 41.7325 46.8095C41.8465 46.6809 42.3883 46.6809 42.6877 46.7952ZM44.0565 46.9952C44.0565 47.1523 43.9994 47.2809 43.9282 47.2809C43.8569 47.2809 43.7713 47.1523 43.7285 46.9952C43.6858 46.8095 43.7285 46.7095 43.8569 46.7095C43.9709 46.7095 44.0565 46.838 44.0565 46.9952ZM46.3377 46.9952C46.3377 47.1523 46.2807 47.2809 46.1951 47.2809C46.1239 47.2809 46.0526 47.1523 46.0526 46.9952C46.0526 46.838 46.1239 46.7095 46.1951 46.7095C46.2807 46.7095 46.3377 46.838 46.3377 46.9952ZM46.908 46.9952C46.908 47.1523 46.851 47.2809 46.7655 47.2809C46.6942 47.2809 46.6229 47.1523 46.6229 46.9952C46.6229 46.838 46.6942 46.7095 46.7655 46.7095C46.851 46.7095 46.908 46.838 46.908 46.9952Z" fill="#3B82F6"/>
<path d="M42.6877 46.7952C42.8161 46.838 42.9159 46.9666 42.9159 47.0809C42.9159 47.2238 42.7305 47.2809 42.2743 47.2809C41.6612 47.2809 41.4473 47.0809 41.7325 46.8095C41.8465 46.6809 42.3883 46.6809 42.6877 46.7952Z" fill="#3B82F6"/>
<path d="M44.0565 46.9952C44.0565 47.1523 43.9994 47.2809 43.9282 47.2809C43.8569 47.2809 43.7713 47.1523 43.7285 46.9952C43.6858 46.8095 43.7285 46.7095 43.8569 46.7095C43.9709 46.7095 44.0565 46.838 44.0565 46.9952Z" fill="#3B82F6"/>
<path d="M46.3377 46.9952C46.3377 47.1523 46.2807 47.2809 46.1951 47.2809C46.1239 47.2809 46.0526 47.1523 46.0526 46.9952C46.0526 46.838 46.1239 46.7095 46.1951 46.7095C46.2807 46.7095 46.3377 46.838 46.3377 46.9952Z" fill="#3B82F6"/>
<path d="M46.908 46.9952C46.908 47.1523 46.851 47.2809 46.7655 47.2809C46.6942 47.2809 46.6229 47.1523 46.6229 46.9952C46.6229 46.838 46.6942 46.7095 46.7655 46.7095C46.851 46.7095 46.908 46.838 46.908 46.9952Z" fill="#3B82F6"/>
</svg>
