<svg width="264" height="75" viewBox="0 0 264 75" fill="none" xmlns="http://www.w3.org/2000/svg">
<rect width="264" height="75" rx="12" fill="white" fill-opacity="0.15"/>
<rect x="0.5" y="0.5" width="263" height="74" rx="11.5" stroke="white" stroke-opacity="0.15"/>
<path d="M48.4532 46.3946C54.0197 43.2741 58.2764 40.8966 58.6403 40.7108C59.8045 40.0793 61.0051 38.4076 58.6403 37.1074C57.8762 36.6988 53.765 34.3956 48.4532 31.4237L41.1403 38.9277L48.4532 46.3946Z" fill="#FFD400"/>
<path d="M41.1403 38.9277L17.7828 62.9628C18.3285 63.0371 18.947 62.8885 19.6747 62.4799C21.2027 61.6255 37.4293 52.5612 48.4532 46.3946L41.1403 38.9277Z" fill="#FF3333"/>
<path d="M41.1403 38.9277L48.4532 31.4237C48.4532 31.4237 21.3119 16.3043 19.6746 15.4127C19.0561 15.0412 18.3649 14.9298 17.7464 15.0412L41.1403 38.9277Z" fill="#48FF48"/>
<path d="M41.1403 38.9277L17.7464 15.0412C16.8004 15.2641 16 16.1185 16 17.8645C16 20.6506 16 57.7992 16 60.1395C16 61.7369 16.6185 62.8885 17.7827 63L41.1403 38.9277Z" fill="#3BCCFF"/>
<path d="M76.752 29.168C75.9867 29.168 75.38 29.0093 74.932 28.692C74.484 28.3653 74.162 27.908 73.966 27.32C73.7793 26.7227 73.686 26.032 73.686 25.248V21.454C73.686 20.642 73.784 19.942 73.98 19.354C74.176 18.766 74.5167 18.3133 75.002 17.996C75.4967 17.6787 76.164 17.52 77.004 17.52C77.816 17.52 78.4553 17.6553 78.922 17.926C79.398 18.1967 79.7387 18.5793 79.944 19.074C80.1493 19.5687 80.252 20.1567 80.252 20.838V21.496H77.998V20.698C77.998 20.3993 77.9793 20.138 77.942 19.914C77.9047 19.6807 77.816 19.4987 77.676 19.368C77.5453 19.2373 77.3307 19.172 77.032 19.172C76.724 19.172 76.5 19.2513 76.36 19.41C76.22 19.5687 76.1313 19.774 76.094 20.026C76.0567 20.2687 76.038 20.53 76.038 20.81V25.836C76.038 26.1533 76.066 26.438 76.122 26.69C76.178 26.942 76.2807 27.138 76.43 27.278C76.5887 27.418 76.8127 27.488 77.102 27.488C77.3913 27.488 77.6153 27.4133 77.774 27.264C77.9327 27.1147 78.04 26.914 78.096 26.662C78.1613 26.4007 78.194 26.1067 78.194 25.78V24.576H77.088V23.176H80.28V29H78.768L78.628 27.978C78.4787 28.3233 78.2547 28.608 77.956 28.832C77.6573 29.056 77.256 29.168 76.752 29.168ZM84.2877 29.14C83.6904 29.14 83.1911 29.0327 82.7897 28.818C82.3884 28.594 82.0851 28.272 81.8797 27.852C81.6744 27.4227 81.5717 26.9093 81.5717 26.312V23.596C81.5717 22.98 81.6744 22.4667 81.8797 22.056C82.0851 21.636 82.3931 21.3187 82.8037 21.104C83.2144 20.88 83.7091 20.768 84.2877 20.768C84.9037 20.768 85.4031 20.88 85.7857 21.104C86.1684 21.328 86.4484 21.6547 86.6257 22.084C86.8124 22.5133 86.9057 23.036 86.9057 23.652V25.066H83.6577V26.634C83.6577 26.8673 83.6811 27.0587 83.7277 27.208C83.7837 27.3573 83.8584 27.4647 83.9517 27.53C84.0451 27.586 84.1617 27.614 84.3017 27.614C84.4324 27.614 84.5444 27.586 84.6377 27.53C84.7404 27.4647 84.8151 27.3667 84.8617 27.236C84.9084 27.1053 84.9317 26.9327 84.9317 26.718V25.948H86.8917V26.62C86.8917 27.4413 86.6677 28.0667 86.2197 28.496C85.7717 28.9253 85.1277 29.14 84.2877 29.14ZM83.6577 24.058H84.9317V23.26C84.9317 23.0267 84.9084 22.84 84.8617 22.7C84.8151 22.5507 84.7404 22.448 84.6377 22.392C84.5444 22.3267 84.4231 22.294 84.2737 22.294C84.1337 22.294 84.0171 22.3267 83.9237 22.392C83.8397 22.4573 83.7744 22.574 83.7277 22.742C83.6811 22.9007 83.6577 23.1293 83.6577 23.428V24.058ZM90.6292 29.084C90.0598 29.084 89.6165 29 89.2992 28.832C88.9912 28.6547 88.7765 28.4027 88.6552 28.076C88.5338 27.7493 88.4732 27.3527 88.4732 26.886V22.294H87.6752V20.908H88.4732V18.458H90.6012V20.908H91.7912V22.294H90.6012V26.69C90.6012 26.942 90.6665 27.124 90.7972 27.236C90.9278 27.3387 91.1052 27.39 91.3292 27.39C91.4412 27.39 91.5485 27.3853 91.6512 27.376C91.7538 27.3573 91.8472 27.3433 91.9312 27.334V28.986C91.7912 29.0047 91.5998 29.0233 91.3572 29.042C91.1238 29.07 90.8812 29.084 90.6292 29.084ZM96.4923 29V20.908H98.6063V29H96.4923ZM96.4783 19.578V17.996H98.6063V19.578H96.4783ZM102.51 29.084C101.941 29.084 101.497 29 101.18 28.832C100.872 28.6547 100.657 28.4027 100.536 28.076C100.415 27.7493 100.354 27.3527 100.354 26.886V22.294H99.556V20.908H100.354V18.458H102.482V20.908H103.672V22.294H102.482V26.69C102.482 26.942 102.547 27.124 102.678 27.236C102.809 27.3387 102.986 27.39 103.21 27.39C103.322 27.39 103.429 27.3853 103.532 27.376C103.635 27.3573 103.728 27.3433 103.812 27.334V28.986C103.672 29.0047 103.481 29.0233 103.238 29.042C103.005 29.07 102.762 29.084 102.51 29.084ZM110.907 29.14C110.329 29.14 109.834 29.0373 109.423 28.832C109.013 28.6173 108.7 28.3093 108.485 27.908C108.28 27.5067 108.177 27.0073 108.177 26.41V23.498C108.177 22.9007 108.28 22.4013 108.485 22C108.7 21.5987 109.013 21.2953 109.423 21.09C109.834 20.8753 110.329 20.768 110.907 20.768C111.486 20.768 111.981 20.8753 112.391 21.09C112.802 21.2953 113.115 21.5987 113.329 22C113.544 22.4013 113.651 22.9007 113.651 23.498V26.41C113.651 27.0073 113.544 27.5067 113.329 27.908C113.115 28.3093 112.802 28.6173 112.391 28.832C111.981 29.0373 111.486 29.14 110.907 29.14ZM110.921 27.712C111.099 27.712 111.234 27.6653 111.327 27.572C111.421 27.4693 111.481 27.334 111.509 27.166C111.537 26.9887 111.551 26.788 111.551 26.564V23.358C111.551 23.1247 111.537 22.924 111.509 22.756C111.481 22.588 111.421 22.4527 111.327 22.35C111.234 22.2473 111.099 22.196 110.921 22.196C110.744 22.196 110.609 22.2473 110.515 22.35C110.422 22.4527 110.357 22.588 110.319 22.756C110.291 22.924 110.277 23.1247 110.277 23.358V26.564C110.277 26.788 110.291 26.9887 110.319 27.166C110.357 27.334 110.422 27.4693 110.515 27.572C110.609 27.6653 110.744 27.712 110.921 27.712ZM114.935 29V20.908H117.049V21.72C117.338 21.4307 117.642 21.202 117.959 21.034C118.286 20.8567 118.631 20.768 118.995 20.768C119.331 20.768 119.602 20.852 119.807 21.02C120.022 21.188 120.18 21.412 120.283 21.692C120.386 21.9627 120.437 22.2707 120.437 22.616V29H118.337V22.966C118.337 22.742 118.3 22.574 118.225 22.462C118.16 22.35 118.029 22.294 117.833 22.294C117.721 22.294 117.595 22.3267 117.455 22.392C117.324 22.448 117.189 22.5273 117.049 22.63V29H114.935Z" fill="white"/>
<path d="M79.504 61.288C78.16 61.288 77.096 61.008 76.312 60.448C75.544 59.888 74.992 59.104 74.656 58.096C74.336 57.072 74.176 55.896 74.176 54.568V48.04C74.176 46.664 74.352 45.472 74.704 44.464C75.056 43.456 75.656 42.68 76.504 42.136C77.368 41.576 78.536 41.296 80.008 41.296C81.448 41.296 82.576 41.536 83.392 42.016C84.224 42.496 84.816 43.16 85.168 44.008C85.52 44.856 85.696 45.848 85.696 46.984V48.232H81.496V46.648C81.496 46.232 81.464 45.848 81.4 45.496C81.352 45.144 81.224 44.864 81.016 44.656C80.824 44.432 80.504 44.32 80.056 44.32C79.592 44.32 79.256 44.448 79.048 44.704C78.84 44.944 78.704 45.248 78.64 45.616C78.592 45.984 78.568 46.368 78.568 46.768V55.768C78.568 56.2 78.608 56.608 78.688 56.992C78.784 57.36 78.944 57.664 79.168 57.904C79.408 58.128 79.744 58.24 80.176 58.24C80.624 58.24 80.968 58.12 81.208 57.88C81.448 57.64 81.616 57.328 81.712 56.944C81.808 56.56 81.856 56.152 81.856 55.72V53.44H80.104V50.92H85.72V61H82.888L82.648 59.392C82.392 59.936 82.016 60.392 81.52 60.76C81.024 61.112 80.352 61.288 79.504 61.288ZM92.7528 61.24C91.7608 61.24 90.8968 61.072 90.1608 60.736C89.4408 60.4 88.8808 59.896 88.4808 59.224C88.0968 58.552 87.9048 57.712 87.9048 56.704V51.424C87.9048 50.416 88.0968 49.576 88.4808 48.904C88.8808 48.232 89.4408 47.728 90.1608 47.392C90.8968 47.056 91.7608 46.888 92.7528 46.888C93.7448 46.888 94.6008 47.056 95.3208 47.392C96.0568 47.728 96.6248 48.232 97.0248 48.904C97.4248 49.576 97.6248 50.416 97.6248 51.424V56.704C97.6248 57.712 97.4248 58.552 97.0248 59.224C96.6248 59.896 96.0568 60.4 95.3208 60.736C94.6008 61.072 93.7448 61.24 92.7528 61.24ZM92.7768 58.648C93.0328 58.648 93.2328 58.584 93.3768 58.456C93.5208 58.312 93.6168 58.12 93.6648 57.88C93.7288 57.624 93.7608 57.32 93.7608 56.968V51.16C93.7608 50.808 93.7288 50.512 93.6648 50.272C93.6168 50.016 93.5208 49.824 93.3768 49.696C93.2328 49.552 93.0328 49.48 92.7768 49.48C92.5208 49.48 92.3208 49.552 92.1768 49.696C92.0328 49.824 91.9288 50.016 91.8648 50.272C91.8008 50.512 91.7688 50.808 91.7688 51.16V56.968C91.7688 57.32 91.8008 57.624 91.8648 57.88C91.9288 58.12 92.0328 58.312 92.1768 58.456C92.3208 58.584 92.5208 58.648 92.7768 58.648ZM104.354 61.24C103.362 61.24 102.498 61.072 101.762 60.736C101.042 60.4 100.482 59.896 100.082 59.224C99.6983 58.552 99.5063 57.712 99.5063 56.704V51.424C99.5063 50.416 99.6983 49.576 100.082 48.904C100.482 48.232 101.042 47.728 101.762 47.392C102.498 47.056 103.362 46.888 104.354 46.888C105.346 46.888 106.202 47.056 106.922 47.392C107.658 47.728 108.226 48.232 108.626 48.904C109.026 49.576 109.226 50.416 109.226 51.424V56.704C109.226 57.712 109.026 58.552 108.626 59.224C108.226 59.896 107.658 60.4 106.922 60.736C106.202 61.072 105.346 61.24 104.354 61.24ZM104.378 58.648C104.634 58.648 104.834 58.584 104.978 58.456C105.122 58.312 105.218 58.12 105.266 57.88C105.33 57.624 105.362 57.32 105.362 56.968V51.16C105.362 50.808 105.33 50.512 105.266 50.272C105.218 50.016 105.122 49.824 104.978 49.696C104.834 49.552 104.634 49.48 104.378 49.48C104.122 49.48 103.922 49.552 103.778 49.696C103.634 49.824 103.53 50.016 103.466 50.272C103.402 50.512 103.37 50.808 103.37 51.16V56.968C103.37 57.32 103.402 57.624 103.466 57.88C103.53 58.12 103.634 58.312 103.778 58.456C103.922 58.584 104.122 58.648 104.378 58.648ZM115.932 65.8C114.892 65.8 113.98 65.696 113.196 65.488C112.428 65.28 111.828 64.968 111.396 64.552C110.98 64.136 110.772 63.616 110.772 62.992C110.772 62.512 110.876 62.08 111.084 61.696C111.308 61.328 111.612 61.008 111.996 60.736C112.396 60.464 112.844 60.232 113.34 60.04L114.852 60.304C114.676 60.448 114.508 60.6 114.348 60.76C114.204 60.904 114.084 61.056 113.988 61.216C113.892 61.392 113.844 61.592 113.844 61.816C113.844 62.168 114.044 62.432 114.444 62.608C114.844 62.784 115.508 62.872 116.436 62.872C117.204 62.872 117.796 62.8 118.212 62.656C118.644 62.528 118.86 62.264 118.86 61.864C118.86 61.64 118.804 61.464 118.692 61.336C118.58 61.208 118.396 61.104 118.14 61.024C117.884 60.944 117.532 60.88 117.084 60.832L113.628 60.4C112.892 60.304 112.308 60.04 111.876 59.608C111.444 59.176 111.228 58.64 111.228 58C111.228 57.44 111.396 56.92 111.732 56.44C112.084 55.96 112.54 55.488 113.1 55.024L114.468 55.792C114.276 55.984 114.124 56.168 114.012 56.344C113.9 56.504 113.844 56.688 113.844 56.896C113.844 57.088 113.94 57.24 114.132 57.352C114.324 57.464 114.668 57.552 115.164 57.616L118.452 58.048C119.636 58.192 120.5 58.584 121.044 59.224C121.604 59.864 121.884 60.688 121.884 61.696C121.884 62.592 121.684 63.344 121.284 63.952C120.9 64.56 120.268 65.016 119.388 65.32C118.524 65.64 117.372 65.8 115.932 65.8ZM116.172 56.512C115.084 56.512 114.164 56.32 113.412 55.936C112.676 55.552 112.116 55.008 111.732 54.304C111.364 53.584 111.18 52.72 111.18 51.712C111.18 50.672 111.372 49.792 111.756 49.072C112.14 48.352 112.7 47.808 113.436 47.44C114.188 47.072 115.1 46.888 116.172 46.888C117.196 46.888 118.06 47.08 118.764 47.464C119.468 47.848 120.004 48.4 120.372 49.12C120.756 49.824 120.948 50.688 120.948 51.712C120.948 52.72 120.764 53.584 120.396 54.304C120.044 55.008 119.516 55.552 118.812 55.936C118.108 56.32 117.228 56.512 116.172 56.512ZM116.172 54.184C116.396 54.184 116.572 54.144 116.7 54.064C116.844 53.968 116.948 53.824 117.012 53.632C117.092 53.44 117.148 53.184 117.18 52.864C117.212 52.544 117.228 52.16 117.228 51.712C117.228 51.248 117.212 50.864 117.18 50.56C117.148 50.24 117.092 49.984 117.012 49.792C116.948 49.584 116.844 49.44 116.7 49.36C116.572 49.264 116.396 49.216 116.172 49.216C115.964 49.216 115.788 49.264 115.644 49.36C115.5 49.44 115.388 49.576 115.308 49.768C115.228 49.96 115.172 50.216 115.14 50.536C115.108 50.856 115.092 51.248 115.092 51.712C115.092 52.16 115.108 52.544 115.14 52.864C115.172 53.168 115.22 53.424 115.284 53.632C115.364 53.824 115.476 53.968 115.62 54.064C115.764 54.144 115.948 54.184 116.172 54.184ZM120.108 49.312L119.292 48.256C119.532 47.792 119.828 47.424 120.18 47.152C120.548 46.864 121.036 46.576 121.644 46.288L122.58 48.16C122.42 48.208 122.18 48.304 121.86 48.448C121.556 48.576 121.236 48.72 120.9 48.88C120.58 49.04 120.316 49.184 120.108 49.312ZM123.611 61V41.56H127.499V61H123.611ZM134.565 61.24C133.557 61.24 132.693 61.064 131.973 60.712C131.253 60.344 130.701 59.816 130.317 59.128C129.933 58.424 129.741 57.584 129.741 56.608V51.52C129.741 50.528 129.933 49.688 130.317 49C130.701 48.312 131.253 47.792 131.973 47.44C132.709 47.072 133.573 46.888 134.565 46.888C135.589 46.888 136.437 47.064 137.109 47.416C137.797 47.768 138.309 48.288 138.645 48.976C138.997 49.664 139.173 50.512 139.173 51.52V54.304H133.605V56.968C133.605 57.32 133.645 57.608 133.725 57.832C133.805 58.056 133.917 58.216 134.061 58.312C134.205 58.408 134.373 58.456 134.565 58.456C134.757 58.456 134.925 58.416 135.069 58.336C135.229 58.24 135.349 58.096 135.429 57.904C135.525 57.712 135.573 57.448 135.573 57.112V55.648H139.173V56.992C139.173 58.4 138.765 59.464 137.949 60.184C137.133 60.888 136.005 61.24 134.565 61.24ZM133.605 52.48H135.573V51.088C135.573 50.72 135.525 50.432 135.429 50.224C135.349 50.016 135.229 49.872 135.069 49.792C134.925 49.712 134.749 49.672 134.541 49.672C134.349 49.672 134.181 49.72 134.037 49.816C133.909 49.912 133.805 50.08 133.725 50.32C133.645 50.544 133.605 50.872 133.605 51.304V52.48ZM147.659 61V41.56H154.187C155.355 41.56 156.315 41.784 157.067 42.232C157.819 42.664 158.379 43.304 158.747 44.152C159.115 44.984 159.299 46 159.299 47.2C159.299 48.704 159.051 49.856 158.555 50.656C158.059 51.44 157.387 51.984 156.539 52.288C155.691 52.592 154.739 52.744 153.683 52.744H151.955V61H147.659ZM151.955 49.744H153.395C153.923 49.744 154.323 49.648 154.595 49.456C154.867 49.264 155.043 48.976 155.123 48.592C155.219 48.208 155.267 47.72 155.267 47.128C155.267 46.632 155.227 46.2 155.147 45.832C155.083 45.448 154.915 45.144 154.643 44.92C154.371 44.696 153.947 44.584 153.371 44.584H151.955V49.744ZM161.322 61V41.56H165.21V61H161.322ZM170.212 61.24C169.508 61.24 168.916 61.072 168.436 60.736C167.956 60.4 167.596 59.976 167.356 59.464C167.116 58.936 166.996 58.4 166.996 57.856C166.996 56.992 167.164 56.264 167.5 55.672C167.852 55.08 168.308 54.584 168.868 54.184C169.428 53.784 170.044 53.448 170.716 53.176C171.388 52.888 172.052 52.632 172.708 52.408V51.016C172.708 50.776 172.684 50.568 172.636 50.392C172.588 50.2 172.508 50.056 172.396 49.96C172.284 49.848 172.116 49.792 171.892 49.792C171.668 49.792 171.492 49.84 171.364 49.936C171.252 50.032 171.172 50.168 171.124 50.344C171.076 50.504 171.044 50.688 171.028 50.896L170.932 51.904L167.284 51.76C167.364 50.096 167.804 48.872 168.604 48.088C169.42 47.288 170.636 46.888 172.252 46.888C173.66 46.888 174.708 47.28 175.396 48.064C176.1 48.832 176.452 49.832 176.452 51.064V57.544C176.452 58.12 176.46 58.624 176.476 59.056C176.508 59.488 176.54 59.864 176.572 60.184C176.62 60.504 176.66 60.776 176.692 61H173.188C173.14 60.632 173.084 60.232 173.02 59.8C172.956 59.368 172.908 59.112 172.876 59.032C172.716 59.608 172.412 60.12 171.964 60.568C171.532 61.016 170.948 61.24 170.212 61.24ZM171.604 58.6C171.764 58.6 171.908 58.568 172.036 58.504C172.18 58.44 172.308 58.352 172.42 58.24C172.532 58.128 172.628 58.016 172.708 57.904V54.112C172.388 54.304 172.092 54.504 171.82 54.712C171.548 54.904 171.316 55.12 171.124 55.36C170.932 55.6 170.78 55.864 170.668 56.152C170.572 56.424 170.524 56.736 170.524 57.088C170.524 57.552 170.62 57.92 170.812 58.192C171.004 58.464 171.268 58.6 171.604 58.6ZM179.069 65.032V62.32C179.565 62.32 179.973 62.288 180.293 62.224C180.629 62.16 180.877 62.04 181.037 61.864C181.213 61.688 181.301 61.448 181.301 61.144C181.301 60.872 181.253 60.544 181.157 60.16C181.061 59.76 180.941 59.312 180.797 58.816L177.533 47.128H181.205L182.957 55.144L184.277 47.128H187.973L184.781 61.336C184.573 62.296 184.245 63.04 183.797 63.568C183.349 64.112 182.797 64.488 182.141 64.696C181.501 64.92 180.773 65.032 179.957 65.032H179.069ZM200.959 61.288C199.743 61.288 198.727 61.072 197.911 60.64C197.095 60.208 196.479 59.544 196.063 58.648C195.647 57.736 195.415 56.56 195.367 55.12L199.039 54.568C199.055 55.4 199.127 56.072 199.255 56.584C199.399 57.096 199.591 57.464 199.831 57.688C200.087 57.912 200.391 58.024 200.743 58.024C201.191 58.024 201.479 57.872 201.607 57.568C201.751 57.264 201.823 56.944 201.823 56.608C201.823 55.808 201.631 55.136 201.247 54.592C200.863 54.032 200.343 53.472 199.687 52.912L198.007 51.448C197.271 50.824 196.647 50.12 196.135 49.336C195.639 48.536 195.391 47.552 195.391 46.384C195.391 44.736 195.879 43.48 196.855 42.616C197.831 41.736 199.159 41.296 200.839 41.296C201.879 41.296 202.711 41.472 203.335 41.824C203.975 42.176 204.455 42.64 204.775 43.216C205.111 43.776 205.335 44.376 205.447 45.016C205.575 45.64 205.647 46.24 205.663 46.816L201.967 47.272C201.951 46.696 201.911 46.2 201.847 45.784C201.799 45.352 201.687 45.024 201.511 44.8C201.335 44.56 201.063 44.44 200.695 44.44C200.295 44.44 199.999 44.608 199.807 44.944C199.631 45.28 199.543 45.616 199.543 45.952C199.543 46.672 199.711 47.264 200.047 47.728C200.399 48.176 200.855 48.648 201.415 49.144L203.023 50.56C203.871 51.28 204.583 52.096 205.159 53.008C205.751 53.92 206.047 55.048 206.047 56.392C206.047 57.304 205.839 58.136 205.423 58.888C205.007 59.624 204.415 60.208 203.647 60.64C202.895 61.072 201.999 61.288 200.959 61.288ZM212.256 61.144C211.216 61.144 210.416 60.992 209.855 60.688C209.296 60.384 208.904 59.944 208.68 59.368C208.472 58.776 208.368 58.064 208.368 57.232V49.696H207.024V47.128H208.368V42.904H212.328V47.128H214.296V49.696H212.328V56.848C212.328 57.248 212.44 57.536 212.664 57.712C212.904 57.888 213.2 57.976 213.552 57.976C213.76 57.976 213.952 57.968 214.128 57.952C214.304 57.92 214.464 57.896 214.608 57.88V60.952C214.4 60.984 214.072 61.024 213.624 61.072C213.176 61.12 212.72 61.144 212.256 61.144ZM220.886 61.24C219.894 61.24 219.03 61.072 218.294 60.736C217.574 60.4 217.014 59.896 216.614 59.224C216.23 58.552 216.038 57.712 216.038 56.704V51.424C216.038 50.416 216.23 49.576 216.614 48.904C217.014 48.232 217.574 47.728 218.294 47.392C219.03 47.056 219.894 46.888 220.886 46.888C221.878 46.888 222.734 47.056 223.454 47.392C224.19 47.728 224.758 48.232 225.158 48.904C225.558 49.576 225.758 50.416 225.758 51.424V56.704C225.758 57.712 225.558 58.552 225.158 59.224C224.758 59.896 224.19 60.4 223.454 60.736C222.734 61.072 221.878 61.24 220.886 61.24ZM220.91 58.648C221.166 58.648 221.366 58.584 221.51 58.456C221.654 58.312 221.75 58.12 221.798 57.88C221.862 57.624 221.894 57.32 221.894 56.968V51.16C221.894 50.808 221.862 50.512 221.798 50.272C221.75 50.016 221.654 49.824 221.51 49.696C221.366 49.552 221.166 49.48 220.91 49.48C220.654 49.48 220.454 49.552 220.31 49.696C220.166 49.824 220.062 50.016 219.998 50.272C219.934 50.512 219.902 50.808 219.902 51.16V56.968C219.902 57.32 219.934 57.624 219.998 57.88C220.062 58.12 220.166 58.312 220.31 58.456C220.454 58.584 220.654 58.648 220.91 58.648ZM227.975 61V47.128H231.887V49.432C232.335 48.632 232.783 48.024 233.231 47.608C233.679 47.176 234.223 46.96 234.863 46.96C234.991 46.96 235.103 46.968 235.199 46.984C235.295 46.984 235.383 47 235.463 47.032V50.92C235.287 50.84 235.087 50.776 234.863 50.728C234.655 50.664 234.431 50.632 234.191 50.632C233.743 50.632 233.327 50.752 232.943 50.992C232.559 51.232 232.207 51.56 231.887 51.976V61H227.975ZM241.627 61.24C240.619 61.24 239.755 61.064 239.035 60.712C238.315 60.344 237.763 59.816 237.379 59.128C236.995 58.424 236.803 57.584 236.803 56.608V51.52C236.803 50.528 236.995 49.688 237.379 49C237.763 48.312 238.315 47.792 239.035 47.44C239.771 47.072 240.635 46.888 241.627 46.888C242.651 46.888 243.499 47.064 244.171 47.416C244.859 47.768 245.371 48.288 245.707 48.976C246.059 49.664 246.235 50.512 246.235 51.52V54.304H240.667V56.968C240.667 57.32 240.707 57.608 240.787 57.832C240.867 58.056 240.979 58.216 241.123 58.312C241.267 58.408 241.435 58.456 241.627 58.456C241.819 58.456 241.987 58.416 242.131 58.336C242.291 58.24 242.411 58.096 242.491 57.904C242.587 57.712 242.635 57.448 242.635 57.112V55.648H246.235V56.992C246.235 58.4 245.827 59.464 245.011 60.184C244.195 60.888 243.067 61.24 241.627 61.24ZM240.667 52.48H242.635V51.088C242.635 50.72 242.587 50.432 242.491 50.224C242.411 50.016 242.291 49.872 242.131 49.792C241.987 49.712 241.811 49.672 241.603 49.672C241.411 49.672 241.243 49.72 241.099 49.816C240.971 49.912 240.867 50.08 240.787 50.32C240.707 50.544 240.667 50.872 240.667 51.304V52.48Z" fill="white"/>
</svg>
